<?xml version="1.0" encoding="UTF-8"?>
<svg xmlns="http://www.w3.org/2000/svg" xmlns:xlink="http://www.w3.org/1999/xlink" viewBox="0 0 9082.21 5102.36">
  <defs>
    <style>
      .cls-1 {
        opacity: .64;
      }

      .cls-1, .cls-2, .cls-3, .cls-4, .cls-5, .cls-6, .cls-7, .cls-8, .cls-9, .cls-10, .cls-11, .cls-12, .cls-13, .cls-14, .cls-15, .cls-16, .cls-17, .cls-18, .cls-19, .cls-20, .cls-21, .cls-22, .cls-23, .cls-24, .cls-25, .cls-26, .cls-27, .cls-28, .cls-29, .cls-30, .cls-31, .cls-32, .cls-33, .cls-34, .cls-35, .cls-36, .cls-37, .cls-38, .cls-39, .cls-40, .cls-41, .cls-42, .cls-43, .cls-44, .cls-45, .cls-46, .cls-47, .cls-48, .cls-49, .cls-50, .cls-51, .cls-52, .cls-53, .cls-54, .cls-55, .cls-56, .cls-57, .cls-58, .cls-59, .cls-60, .cls-61, .cls-62, .cls-63, .cls-64, .cls-65, .cls-66, .cls-67, .cls-68, .cls-69, .cls-70, .cls-71, .cls-72, .cls-73 {
        stroke-width: 0px;
      }

      .cls-1, .cls-2, .cls-4, .cls-5, .cls-6, .cls-7, .cls-9, .cls-11, .cls-13, .cls-14, .cls-16, .cls-19, .cls-20, .cls-21, .cls-22, .cls-23, .cls-24, .cls-26, .cls-27, .cls-28, .cls-29, .cls-31, .cls-33, .cls-34, .cls-37, .cls-38, .cls-39, .cls-43, .cls-48, .cls-49, .cls-50, .cls-52, .cls-54, .cls-55, .cls-56, .cls-59, .cls-60, .cls-61, .cls-62, .cls-64, .cls-66, .cls-67, .cls-68, .cls-72, .cls-73 {
        fill: #fff;
      }

      .cls-2, .cls-67 {
        opacity: .63;
      }

      .cls-3 {
        fill: url(#linear-gradient-6);
      }

      .cls-3, .cls-17 {
        opacity: .15;
      }

      .cls-4, .cls-62 {
        opacity: .65;
      }

      .cls-5 {
        opacity: .35;
      }

      .cls-6, .cls-52 {
        opacity: .71;
      }

      .cls-7 {
        opacity: .73;
      }

      .cls-8 {
        fill: url(#_Градієнт_без_назви_332-2);
      }

      .cls-8, .cls-27 {
        opacity: .4;
      }

      .cls-9 {
        opacity: .36;
      }

      .cls-10, .cls-74 {
        opacity: .11;
      }

      .cls-11 {
        opacity: .79;
      }

      .cls-12 {
        fill: url(#linear-gradient-8);
        opacity: .29;
      }

      .cls-13, .cls-75 {
        opacity: .7;
      }

      .cls-76 {
        opacity: .07;
      }

      .cls-14 {
        opacity: .78;
      }

      .cls-15 {
        fill: url(#linear-gradient);
      }

      .cls-16 {
        opacity: .53;
      }

      .cls-16, .cls-18, .cls-21, .cls-26, .cls-31, .cls-33, .cls-52, .cls-56, .cls-60, .cls-62, .cls-65, .cls-67, .cls-70, .cls-71 {
        mix-blend-mode: color-dodge;
      }

      .cls-18 {
        fill: url(#_Градієнт_без_назви_8);
      }

      .cls-19 {
        opacity: .8;
      }

      .cls-20 {
        opacity: .76;
      }

      .cls-21 {
        opacity: .98;
      }

      .cls-22 {
        opacity: .39;
      }

      .cls-23 {
        opacity: .77;
      }

      .cls-24 {
        opacity: .74;
      }

      .cls-25 {
        opacity: .08;
      }

      .cls-28 {
        opacity: .42;
      }

      .cls-29 {
        opacity: .46;
      }

      .cls-30 {
        fill: url(#_Градієнт_без_назви_331);
      }

      .cls-30, .cls-38 {
        opacity: .5;
      }

      .cls-31 {
        opacity: .99;
      }

      .cls-32 {
        opacity: .09;
      }

      .cls-33 {
        opacity: .85;
      }

      .cls-34 {
        opacity: .45;
      }

      .cls-35 {
        fill: url(#_Градієнт_без_назви_300);
      }

      .cls-35, .cls-40, .cls-41, .cls-42 {
        opacity: .9;
      }

      .cls-36 {
        opacity: .22;
      }

      .cls-37 {
        opacity: .49;
      }

      .cls-39 {
        opacity: .48;
      }

      .cls-77 {
        opacity: .16;
      }

      .cls-78 {
        opacity: .13;
      }

      .cls-40 {
        fill: url(#linear-gradient-3);
      }

      .cls-41 {
        fill: url(#linear-gradient-4);
      }

      .cls-42 {
        fill: url(#linear-gradient-2);
      }

      .cls-43, .cls-60 {
        opacity: .54;
      }

      .cls-44 {
        fill: url(#_Градієнт_без_назви_277);
      }

      .cls-45 {
        fill: url(#_Градієнт_без_назви_280);
      }

      .cls-46 {
        fill: url(#_Градієнт_без_назви_338);
      }

      .cls-47 {
        fill: url(#_Градієнт_без_назви_335);
      }

      .cls-48 {
        opacity: .52;
      }

      .cls-49 {
        opacity: .55;
      }

      .cls-50, .cls-79 {
        opacity: .02;
      }

      .cls-51 {
        fill: url(#linear-gradient-5);
      }

      .cls-80 {
        isolation: isolate;
      }

      .cls-54 {
        opacity: .6;
      }

      .cls-55 {
        opacity: .61;
      }

      .cls-56, .cls-59 {
        opacity: .57;
      }

      .cls-57 {
        fill: url(#linear-gradient-7);
        opacity: .21;
      }

      .cls-58 {
        fill: url(#_Градієнт_без_назви_332);
      }

      .cls-58, .cls-69 {
        opacity: .2;
      }

      .cls-61 {
        opacity: .58;
      }

      .cls-63 {
        fill: #34467c;
      }

      .cls-65 {
        fill: url(#radial-gradient);
      }

      .cls-66 {
        opacity: .67;
      }

      .cls-68 {
        opacity: .66;
      }

      .cls-70 {
        fill: url(#_Градієнт_без_назви_8-3);
      }

      .cls-71 {
        fill: url(#_Градієнт_без_назви_8-2);
      }

      .cls-72 {
        opacity: .68;
      }

      .cls-73 {
        opacity: .69;
      }
    </style>
    <linearGradient id="linear-gradient" x1="4541.11" y1="3239.33" x2="4541.11" y2="9.73" gradientUnits="userSpaceOnUse">
      <stop offset="0" stop-color="#435be0"/>
      <stop offset=".5" stop-color="#2e3496"/>
      <stop offset="1" stop-color="#2f236e"/>
    </linearGradient>
    <radialGradient id="radial-gradient" cx="4108.67" cy="2255.26" fx="4108.67" fy="2255.26" r="281.75" gradientTransform="translate(1465.56 -14714.07) rotate(45) scale(3.6)" gradientUnits="userSpaceOnUse">
      <stop offset=".18" stop-color="#616263"/>
      <stop offset=".29" stop-color="#4a4b4c"/>
      <stop offset=".49" stop-color="#2a2a2b"/>
      <stop offset=".68" stop-color="#121313"/>
      <stop offset=".85" stop-color="#040404"/>
      <stop offset="1" stop-color="#000"/>
    </radialGradient>
    <linearGradient id="linear-gradient-2" x1="2646.08" y1="1823.83" x2="2677.49" y2="1791.25" gradientTransform="translate(8671.4 -561.67) rotate(171.33) scale(1 -1)" gradientUnits="userSpaceOnUse">
      <stop offset="0" stop-color="#eaebeb"/>
      <stop offset=".05" stop-color="#ebecec"/>
      <stop offset=".57" stop-color="#fafafa"/>
      <stop offset="1" stop-color="#fff"/>
    </linearGradient>
    <linearGradient id="linear-gradient-3" x1="6108.14" y1="1570.37" x2="6176.48" y2="1638.71" gradientUnits="userSpaceOnUse">
      <stop offset="0" stop-color="#fff"/>
      <stop offset=".43" stop-color="#fafafa"/>
      <stop offset=".95" stop-color="#ebecec"/>
      <stop offset=".99" stop-color="#eaebeb"/>
    </linearGradient>
    <linearGradient id="linear-gradient-4" x1="6181.89" y1="1403.65" x2="6194.61" y2="1362.02" gradientUnits="userSpaceOnUse">
      <stop offset="0" stop-color="#fff"/>
      <stop offset=".99" stop-color="#eaebeb"/>
    </linearGradient>
    <linearGradient id="_Градієнт_без_назви_300" data-name="Градієнт без назви 300" x1="6097.98" y1="1470.23" x2="6014.45" y2="1462.63" gradientUnits="userSpaceOnUse">
      <stop offset=".05" stop-color="#fff"/>
      <stop offset=".91" stop-color="#eceded"/>
      <stop offset="1" stop-color="#eaebeb"/>
    </linearGradient>
    <linearGradient id="_Градієнт_без_назви_8" data-name="Градієнт без назви 8" x1="6450.58" y1="2728.76" x2="7624.56" y2="2728.76" gradientTransform="translate(1086.3 1011.03) rotate(17.25) scale(.28)" gradientUnits="userSpaceOnUse">
      <stop offset="0" stop-color="#000"/>
      <stop offset=".1" stop-color="#0c0d0d"/>
      <stop offset=".29" stop-color="#2d3031"/>
      <stop offset=".55" stop-color="#63696c"/>
      <stop offset=".87" stop-color="#acb6bb"/>
      <stop offset="1" stop-color="#cedae0"/>
    </linearGradient>
    <linearGradient id="_Градієнт_без_назви_8-2" data-name="Градієнт без назви 8" x1="23627.82" y1="-4390.68" x2="24785.12" y2="-4390.68" xlink:href="#_Градієнт_без_назви_8"/>
    <linearGradient id="_Градієнт_без_назви_8-3" data-name="Градієнт без назви 8" x1="966.6" y1="-889.4" x2="2147.61" y2="-889.4" xlink:href="#_Градієнт_без_назви_8"/>
    <linearGradient id="linear-gradient-5" x1="4541.1" y1="4138.66" x2="4541.1" y2="5058.39" xlink:href="#linear-gradient"/>
    <radialGradient id="_Градієнт_без_назви_332" data-name="Градієнт без назви 332" cx="4985.82" cy="2788.57" fx="4985.82" fy="2788.57" r="645.8" gradientTransform="translate(-11806.87 -6633.07) scale(3.6)" gradientUnits="userSpaceOnUse">
      <stop offset="0" stop-color="#5062bf"/>
      <stop offset=".2" stop-color="#444fa8"/>
      <stop offset=".53" stop-color="#35358a"/>
      <stop offset=".8" stop-color="#2c2577"/>
      <stop offset="1" stop-color="#292071"/>
    </radialGradient>
    <radialGradient id="_Градієнт_без_назви_332-2" data-name="Градієнт без назви 332" cx="4988.21" cy="2881.68" fx="4988.21" fy="2881.68" r="556.14" xlink:href="#_Градієнт_без_назви_332"/>
    <radialGradient id="_Градієнт_без_назви_331" data-name="Градієнт без назви 331" cx="4970.4" cy="2949.87" fx="4970.4" fy="2949.87" r="518.51" gradientTransform="translate(-11806.87 -6633.07) scale(3.6)" gradientUnits="userSpaceOnUse">
      <stop offset="0" stop-color="#5061bf"/>
      <stop offset=".2" stop-color="#444ea8"/>
      <stop offset=".53" stop-color="#35358a"/>
      <stop offset=".8" stop-color="#2c2577"/>
      <stop offset="1" stop-color="#292071"/>
    </radialGradient>
    <linearGradient id="_Градієнт_без_назви_338" data-name="Градієнт без назви 338" x1="2917.21" y1="2862.97" x2="792.14" y2="5420.17" gradientUnits="userSpaceOnUse">
      <stop offset="0" stop-color="#26307c"/>
      <stop offset=".09" stop-color="#252c79"/>
      <stop offset=".62" stop-color="#20196d"/>
      <stop offset="1" stop-color="#1f1369"/>
    </linearGradient>
    <linearGradient id="_Градієнт_без_назви_335" data-name="Градієнт без назви 335" x1="1601.85" y1="1944.39" x2="-179.52" y2="5432.7" gradientUnits="userSpaceOnUse">
      <stop offset=".13" stop-color="#272f7c"/>
      <stop offset=".39" stop-color="#20216a"/>
      <stop offset=".75" stop-color="#1a1357"/>
      <stop offset="1" stop-color="#180e51"/>
    </linearGradient>
    <linearGradient id="linear-gradient-6" x1="4473.91" y1="4127.79" x2="4473.91" y2="5097.11" gradientTransform="translate(9082.2) rotate(-180) scale(1 -1)" gradientUnits="userSpaceOnUse">
      <stop offset="0" stop-color="#fff"/>
      <stop offset="1" stop-color="#364696"/>
    </linearGradient>
    <linearGradient id="linear-gradient-7" x1="3456.41" y1="4167.84" x2="3456.41" y2="5065.03" xlink:href="#linear-gradient-6"/>
    <linearGradient id="linear-gradient-8" x1="3028.45" y1="4163.3" x2="3028.45" y2="5161.38" xlink:href="#linear-gradient-6"/>
    <linearGradient id="_Градієнт_без_назви_277" data-name="Градієнт без назви 277" x1="7453.8" y1="2117.16" x2="9097.81" y2="5304.52" gradientUnits="userSpaceOnUse">
      <stop offset=".17" stop-color="#26307b"/>
      <stop offset=".17" stop-color="#252f7a"/>
      <stop offset=".51" stop-color="#1c1c5c"/>
      <stop offset=".8" stop-color="#161049"/>
      <stop offset="1" stop-color="#140c43"/>
    </linearGradient>
    <linearGradient id="_Градієнт_без_назви_280" data-name="Градієнт без назви 280" x1="2857.59" y1="3875.89" x2="2465.97" y2="5701.43" gradientUnits="userSpaceOnUse">
      <stop offset=".05" stop-color="#1d245d"/>
      <stop offset=".2" stop-color="#1a1e55"/>
      <stop offset=".67" stop-color="#141042"/>
      <stop offset="1" stop-color="#120b3c"/>
    </linearGradient>
  </defs>
  <g class="cls-80">
    <g id="_Шар_1" data-name="Шар 1">
      <g>
        <rect class="cls-15" x=".02" y="0" width="9082.19" height="5102.35"/>
        <g class="cls-77">
          <polygon class="cls-69" points="3561.18 160.7 4605.68 0 2611.51 0 1961.57 174.93 0 1163.54 0 1409.24 332.34 1186.72 1823.2 494.23 3561.18 160.7"/>
          <g>
            <polygon class="cls-36" points="7828.36 2528.86 8332.02 2490.22 9082.2 2727.63 9082.2 2266.58 8197.39 2042.95 7021.74 2455.52 5625.73 2786.92 3965.3 3783.2 3965.3 4057.33 4344.04 3809.06 5642.56 3197.44 6864.05 2811.76 7828.36 2528.86"/>
            <polygon class="cls-69" points="7582.24 326.94 6456.91 493.01 5364.3 689.66 4362.26 1024.19 3602.98 1241.36 2758.53 1681.11 2429.58 1874.44 2294.14 1884.19 1292.59 2174.68 2259.12 1518.3 2775.81 1165.35 3316.41 1124.91 4010.92 923.68 4738.73 670.8 6664.17 341.93 7670.83 154.68 9082.2 0 6224.92 0 5737.63 0 4369.58 342.28 3088.64 542.27 2329.19 864.43 1758.43 1220.43 0 1878.6 0 2415.77 590.91 2470.84 0 3029.66 0 3486.22 1458.68 2650.15 705.93 3836.96 1099.27 3923.56 2072.79 2935.22 2923.65 2200.21 3030.34 2141.13 3137.06 2114.42 3932.78 2085.12 4821.89 1940.38 5239.42 1646.49 6173.4 1561.97 7105.94 1465.24 6604.68 1785.4 6453.36 1891.37 6016.42 1971.72 5708.48 1961.82 5231.54 2135.33 4878.16 2360.81 2172.52 3689.57 2858.33 3689.57 4021.06 3087.16 5375.24 2366.7 5821.08 2334.85 6444.6 2321.74 7143.96 1994.15 7993.29 1548.89 8408.28 1470.7 8683.3 1779.02 9082.2 1937.04 9082.2 1505.05 8591.3 1293.19 9082.2 1148.11 9082.2 864.91 8343.97 1061.14 8050.48 1079.61 6285.88 1094.28 5049.57 1248.99 4326.36 1610 3891.66 1758.89 3686.08 1777.98 3743.3 1746.29 4098.2 1319.44 4872.23 1041.09 5678.65 865.1 6749.6 590.76 8527.28 407.55 9082.2 390.1 9082.2 113.73 8141.46 192.67 7582.24 326.94"/>
          </g>
          <polygon class="cls-69" points="718.75 398.69 2078.22 0 728.72 0 0 517.99 0 521.99 0 1003.44 223.09 890.53 718.75 398.69"/>
        </g>
        <g>
          <circle class="cls-65" cx="6183.59" cy="1485.85" r="1014.29" transform="translate(760.48 4807.66) rotate(-45)"/>
          <g>
            <path class="cls-64" d="m6403.93,1540.67c0,121.7-98.65,220.35-220.34,220.35s-220.35-98.65-220.35-220.35,98.66-220.34,220.35-220.34,220.34,98.65,220.34,220.34Z"/>
            <path class="cls-42" d="m6262.45,1673.14c2.27,3.21,5.74,6.07,10.61,8.54,21.61,10.91,56.37-29.83,64.27-43.98,8.85-15.86,17.06-37.37,17.92-55.73,1.66-36.02-54.55,15.81-58.33,19.33-16.73,15.56-52.84,45.89-34.48,71.85Z"/>
            <path class="cls-40" d="m6089.15,1677.06c22.4,19.85,53.54-14.35,63.8-29.27,13.28-19.32,73.8-72.91,53.51-104.15-12.89-19.74-52.02-10.98-66.09.05-19.26,15.12-29.62,43.84-39.31,65.45-7.04,15.7-24.82,56.42-11.97,67.86.02.02.04.04.07.06Z"/>
            <path class="cls-41" d="m6247.97,1391.95c4.68-16.84-43.43-33.15-60.86-34.46-16.16-1.22-53.69,8.43-60.57,23.1-5.05,10.78,3.88,42.25,15.47,45.03,11.01,2.61,36.35-28.44,50.27-30.75,10.7-1.77,50.77,14.74,55.68-2.92Z"/>
            <path class="cls-35" d="m6069.13,1410.56c12.75,2.01,23.45,13.38,25.26,37.43,1.1,14.57-9.1,44.35-18.65,55.41-6.56,7.59-26.62,22.37-35.75,18.21-16.77-7.65-22.08-55.65-18.56-70.62,6.23-26.45,29.15-43.35,47.71-40.43Z"/>
          </g>
        </g>
        <g>
          <g class="cls-75">
            <g>
              <path class="cls-66" d="m4145.98,1650.33c0,13.48,20.9,13.48,20.9,0,0-13.48-20.9-13.48-20.9,0Z"/>
              <path class="cls-27" d="m558.69,1927.03c0,14.17,21.97,14.17,21.97,0,0-14.18-21.97-14.18-21.97,0Z"/>
              <path class="cls-66" d="m487.75,390.77c0,13.96,21.65,13.96,21.65,0,0-13.96-21.65-13.96-21.65,0Z"/>
              <path class="cls-14" d="m4157.07,1397.86c13.5,0,13.5-20.93,0-20.93-13.5,0-13.5,20.93,0,20.93Z"/>
              <path class="cls-7" d="m872.85,1738.43c0,10.03,15.53,10.03,15.53,0,0-10.01-15.53-10.01-15.53,0Z"/>
              <path class="cls-34" d="m310,229.24c0,10.49,16.28,10.49,16.28,0,0-10.5-16.28-10.5-16.28,0Z"/>
              <path class="cls-61" d="m5119.54,1223.19c0,15.63,24.23,15.63,24.23,0,0-15.62-24.23-15.62-24.23,0Z"/>
              <path class="cls-24" d="m5586.92,2616.11c0,13.47,20.88,13.47,20.88,0,0-13.46-20.88-13.46-20.88,0Z"/>
              <path class="cls-38" d="m3899.64,2245.88c0,18.95,29.38,18.95,29.38,0,0-18.93-29.38-18.93-29.38,0Z"/>
              <path class="cls-24" d="m6078.2,2682.39c0,13.64,21.16,13.64,21.16,0,0-13.67-21.16-13.67-21.16,0Z"/>
              <path class="cls-11" d="m4218.25,2712.12c0,13.46,20.88,13.46,20.88,0,0-13.46-20.88-13.46-20.88,0Z"/>
              <path class="cls-7" d="m514.12,1560.36c0,10.57,16.37,10.57,16.37,0,0-10.55-16.37-10.55-16.37,0Z"/>
              <path class="cls-48" d="m4755.64,978.91c0,11.7,18.14,11.7,18.14,0,0-11.69-18.14-11.69-18.14,0Z"/>
              <path class="cls-54" d="m8955.92,1323.69c0,19.85,30.76,19.85,30.76,0,0-19.82-30.76-19.82-30.76,0Z"/>
              <path class="cls-28" d="m8676.78,526.83c0,18.3,28.39,18.3,28.39,0,0-18.34-28.39-18.34-28.39,0Z"/>
              <path class="cls-59" d="m8971.07,1118.29c0,19.93,30.89,19.93,30.89,0,0-19.92-30.89-19.92-30.89,0Z"/>
              <path class="cls-23" d="m8044.78,573.56c0,13.45,20.86,13.45,20.86,0,0-13.46-20.86-13.46-20.86,0Z"/>
              <path class="cls-5" d="m1048.49,517.57c0,18.81,29.17,18.81,29.17,0s-29.17-18.81-29.17,0Z"/>
              <path class="cls-43" d="m4348.09,993.98c-9.43,0-9.43,14.65,0,14.65,9.45,0,9.45-14.65,0-14.65Z"/>
              <path class="cls-68" d="m5420.21,1209.84c0-13.67-21.2-13.67-21.2,0,0,13.67,21.2,13.67,21.2,0Z"/>
              <path class="cls-27" d="m2123.19,1793.83c0-14.47-22.44-14.47-22.44,0,0,14.48,22.44,14.48,22.44,0Z"/>
              <path class="cls-20" d="m3730.15,1270.26c0-13.7-21.23-13.7-21.23,0,0,13.69,21.23,13.69,21.23,0Z"/>
              <path class="cls-1" d="m6833.48,1621.26c0-12.58-19.51-12.58-19.51,0,0,12.58,19.51,12.58,19.51,0Z"/>
              <path class="cls-73" d="m7529.22,2449.33c0-13.37-20.73-13.37-20.73,0,0,13.37,20.73,13.37,20.73,0Z"/>
              <path class="cls-11" d="m2127.45,859.23c-13.84,0-13.84,21.47,0,21.47,13.84,0,13.84-21.47,0-21.47Z"/>
              <path class="cls-34" d="m5355.06,1904.3c0-10.82-16.75-10.82-16.75,0,0,10.8,16.75,10.8,16.75,0Z"/>
              <path class="cls-72" d="m2589.98,127c0-12.28-19.06-12.28-19.06,0,0,12.29,19.06,12.29,19.06,0Z"/>
              <path class="cls-66" d="m1604.89,127c0-11.84-18.36-11.84-18.36,0,0,11.84,18.36,11.84,18.36,0Z"/>
              <path class="cls-55" d="m5926.81,906.97c0-10.69-16.59-10.69-16.59,0,0,10.7,16.59,10.7,16.59,0Z"/>
              <path class="cls-55" d="m465.58,1191.63c0-13.8-21.38-13.8-21.38,0,0,13.79,21.38,13.79,21.38,0Z"/>
              <path class="cls-38" d="m1526.89,1072.5c0-16.06-24.89-16.06-24.89,0,0,16.04,24.89,16.04,24.89,0Z"/>
              <path class="cls-72" d="m3819.9,558.96c0-13.78-21.38-13.78-21.38,0,0,13.79,21.38,13.79,21.38,0Z"/>
              <path class="cls-23" d="m6732.89,141.62c0-9.31-14.42-9.31-14.42,0,0,9.32,14.42,9.32,14.42,0Z"/>
              <path class="cls-13" d="m3844.01,1001.3c0-10.53-16.32-10.53-16.32,0,0,10.54,16.32,10.54,16.32,0Z"/>
              <path class="cls-66" d="m7509.97,455.74c0-14.04-21.8-14.04-21.8,0,0,14.05,21.8,14.05,21.8,0Z"/>
              <path class="cls-37" d="m6895.34,2121.62c0-13.45-20.88-13.45-20.88,0s20.88,13.45,20.88,0Z"/>
              <path class="cls-29" d="m4627.42,1674.14c0-19.72-30.57-19.72-30.57,0,0,19.71,30.57,19.71,30.57,0Z"/>
              <path class="cls-11" d="m867.18,1297.24c-9.63,0-9.63,14.96,0,14.96,9.64,0,9.64-14.96,0-14.96Z"/>
              <path class="cls-2" d="m4997.89,1699.27c0-14.61-22.67-14.61-22.67,0,0,14.64,22.67,14.64,22.67,0Z"/>
              <path class="cls-23" d="m3859.56,1340.61c0-12.97-20.11-12.97-20.11,0,0,12.96,20.11,12.96,20.11,0Z"/>
              <path class="cls-66" d="m3211.59,629.43c13.11-3.14,8.24-23.47-4.87-20.33-13.1,3.14-8.24,23.47,4.87,20.33Z"/>
              <path class="cls-14" d="m2963.49,677.45c-3.14-13.13-23.5-8.25-20.36,4.88,3.14,13.13,23.5,8.25,20.36-4.88Z"/>
              <path class="cls-20" d="m2938.83,1122.35c-13.32,3.19-8.38,23.84,4.95,20.65,13.31-3.19,8.37-23.84-4.95-20.65Z"/>
              <path class="cls-13" d="m2650.75,1074.27c-10.24,2.45-6.44,18.32,3.8,15.87,10.25-2.46,6.45-18.32-3.8-15.87Z"/>
              <path class="cls-23" d="m2977.1,980.12c-12.61,3.02-7.93,22.57,4.68,19.55,12.6-3.02,7.92-22.57-4.68-19.55Z"/>
              <path class="cls-2" d="m7951.98,2340.46c0-13.66-21.18-13.66-21.18,0,0,13.66,21.18,13.66,21.18,0Z"/>
              <path class="cls-66" d="m7380.99,1467.74c0-13.57-21.05-13.57-21.05,0,0,13.57,21.05,13.57,21.05,0Z"/>
              <path class="cls-4" d="m90.34,802.8c-13.48,0-13.48,20.9,0,20.9,13.48,0,13.48-20.9,0-20.9Z"/>
              <path class="cls-49" d="m5605.87,2301.55c-14.01,0-14.01,21.72,0,21.72,14.01,0,14.01-21.72,0-21.72Z"/>
              <path class="cls-19" d="m6287.63,310.97c0-9.77-15.13-9.77-15.13,0,0,9.75,15.13,9.75,15.13,0Z"/>
              <path class="cls-14" d="m7819.14,3163.68c0-12.31-19.1-12.31-19.1,0,0,12.32,19.1,12.32,19.1,0Z"/>
              <path class="cls-2" d="m2303.9,353.81c0-12.79-19.84-12.79-19.84,0,0,12.79,19.84,12.79,19.84,0Z"/>
              <path class="cls-73" d="m209.78,547.06c0-13.92-21.58-13.92-21.58,0,0,13.91,21.58,13.91,21.58,0Z"/>
              <path class="cls-68" d="m3447.51,218.85c0-14.93-23.14-14.93-23.14,0,0,14.92,23.14,14.92,23.14,0Z"/>
              <path class="cls-68" d="m4327.35,2219.42c0-15.27-23.67-15.27-23.67,0,0,15.26,23.67,15.26,23.67,0Z"/>
              <path class="cls-39" d="m637.22,704.71c0-13.97-21.69-13.97-21.69,0,0,13.99,21.69,13.99,21.69,0Z"/>
              <path class="cls-55" d="m2222.82,1646.52c0-9.51-14.74-9.51-14.74,0,0,9.52,14.74,9.52,14.74,0Z"/>
              <path class="cls-9" d="m7270.04,2169.42c0-13.85-21.47-13.85-21.47,0,0,13.84,21.47,13.84,21.47,0Z"/>
              <path class="cls-6" d="m6621.48,2481.77c-19.73,0-19.73,30.59,0,30.59,19.72,0,19.72-30.59,0-30.59Z"/>
              <path class="cls-22" d="m6845.21,2199.07c0-13.14-20.39-13.14-20.39,0,0,13.14,20.39,13.14,20.39,0Z"/>
              <path class="cls-1" d="m4174.44,506.8c0-11.83-18.35-11.83-18.35,0,0,11.82,18.35,11.82,18.35,0Z"/>
              <path class="cls-4" d="m5665.28,1271.49c0-19.32-29.97-19.32-29.97,0,0,19.32,29.97,19.32,29.97,0Z"/>
            </g>
            <g>
              <polygon class="cls-21" points="7407.46 2730.21 7400.55 2702.67 7373.02 2695.77 7400.55 2688.87 7407.46 2661.33 7414.36 2688.87 7441.89 2695.77 7414.36 2702.67 7407.46 2730.21"/>
              <polygon class="cls-21" points="3174.65 1705.52 3166.6 1673.42 3134.5 1665.37 3166.6 1657.32 3174.65 1625.22 3182.7 1657.32 3214.8 1665.37 3182.7 1673.42 3174.65 1705.52"/>
              <path class="cls-20" d="m1680.97,2047.01c-13.32,3.19-8.38,23.84,4.95,20.65,13.31-3.19,8.37-23.84-4.95-20.65Z"/>
              <path class="cls-13" d="m1392.89,1998.93c-10.24,2.45-6.44,18.32,3.8,15.87,10.25-2.46,6.45-18.32-3.8-15.87Z"/>
              <path class="cls-23" d="m1719.25,1904.77c-12.61,3.02-7.93,22.57,4.68,19.55,12.6-3.02,7.92-22.57-4.68-19.55Z"/>
              <polygon class="cls-21" points="1916.79 2630.18 1908.74 2598.07 1876.64 2590.03 1908.74 2581.98 1916.79 2549.87 1924.84 2581.98 1956.94 2590.03 1924.84 2598.07 1916.79 2630.18"/>
              <polygon class="cls-67" points="2286.14 391.43 2278.58 361.28 2248.43 353.72 2278.58 346.17 2286.14 316.02 2293.7 346.17 2323.85 353.72 2293.7 361.28 2286.14 391.43"/>
              <polygon class="cls-52" points="1756.52 1543.25 1748.52 1511.32 1716.59 1503.32 1748.52 1495.31 1756.52 1463.39 1764.52 1495.31 1796.45 1503.32 1764.52 1511.32 1756.52 1543.25"/>
              <polygon class="cls-56" points="809.29 355.06 800.49 319.97 765.4 311.17 800.49 302.37 809.29 267.28 818.09 302.37 853.18 311.17 818.09 319.97 809.29 355.06"/>
              <polygon class="cls-60" points="4436.16 1193.31 4427.92 1160.44 4395.05 1152.2 4427.92 1143.96 4436.16 1111.09 4444.4 1143.96 4477.27 1152.2 4444.4 1160.44 4436.16 1193.31"/>
              <path class="cls-14" d="m2919.72,2969.24c13.5,0,13.5-20.93,0-20.93-13.5,0-13.5,20.93,0,20.93Z"/>
              <path class="cls-43" d="m3100.62,2459.68c-9.43,0-9.43,14.65,0,14.65,9.45,0,9.45-14.65,0-14.65Z"/>
              <path class="cls-20" d="m2482.68,2735.96c0-13.7-21.23-13.7-21.23,0,0,13.69,21.23,13.69,21.23,0Z"/>
              <path class="cls-13" d="m2596.54,2467c0-10.53-16.32-10.53-16.32,0,0,10.54,16.32,10.54,16.32,0Z"/>
              <path class="cls-23" d="m2612.08,2806.31c0-12.97-20.11-12.97-20.11,0,0,12.96,20.11,12.96,20.11,0Z"/>
              <polygon class="cls-60" points="3188.69 2659.01 3180.45 2626.14 3147.58 2617.9 3180.45 2609.66 3188.69 2576.79 3196.93 2609.66 3229.8 2617.9 3196.93 2626.14 3188.69 2659.01"/>
              <polygon class="cls-21" points="668.57 1775.48 661.04 1745.45 631.01 1737.92 661.04 1730.39 668.57 1700.35 676.1 1730.39 706.14 1737.92 676.1 1745.45 668.57 1775.48"/>
              <polygon class="cls-16" points="5131.16 1677.05 5123.78 1647.59 5094.32 1640.2 5123.78 1632.82 5131.16 1603.36 5138.55 1632.82 5168 1640.2 5138.55 1647.59 5131.16 1677.05"/>
              <polygon class="cls-26" points="733.67 903.77 726.46 875.03 697.73 867.83 726.46 860.62 733.67 831.88 740.87 860.62 769.61 867.83 740.87 875.03 733.67 903.77"/>
              <polygon class="cls-62" points="5779.53 2346.16 5771.99 2316.08 5741.92 2308.55 5771.99 2301.01 5779.53 2270.93 5787.07 2301.01 5817.14 2308.55 5787.07 2316.08 5779.53 2346.16"/>
              <polygon class="cls-33" points="930.19 1969.6 925.57 1951.19 907.16 1946.58 925.57 1941.96 930.19 1923.55 934.8 1941.96 953.22 1946.58 934.8 1951.19 930.19 1969.6"/>
              <polygon class="cls-31" points="6727.27 1350.54 6719.95 1321.34 6690.75 1314.02 6719.95 1306.7 6727.27 1277.5 6734.59 1306.7 6763.79 1314.02 6734.59 1321.34 6727.27 1350.54"/>
            </g>
          </g>
          <g>
            <path class="cls-18" d="m2909.66,2381.96c-4.42,14.24-19.56,22.21-33.82,17.78-14.25-4.42-279.31-124.57-279.31-124.57,0,0,281.09,68.56,295.33,72.98,14.25,4.4,22.22,19.55,17.79,33.8Z"/>
            <path class="cls-71" d="m8121.06,1899.83c-4.36,14.04-19.28,21.89-33.34,17.53-14.04-4.36-275.34-122.8-275.34-122.8,0,0,277.09,67.59,291.14,71.95,14.05,4.34,21.91,19.27,17.54,33.32Z"/>
            <path class="cls-70" d="m1738.37,951.12c-4.45,14.33-19.68,22.34-34.02,17.89-14.33-4.45-280.98-125.32-280.98-125.32,0,0,282.77,68.97,297.1,73.42,14.34,4.43,22.35,19.66,17.9,34.01Z"/>
          </g>
        </g>
        <polygon class="cls-51" points="9082.19 4158.27 9082.19 5102.36 0 5102.36 0 4158.27 4541.11 4158.27 4853.45 4158.27 9082.19 4158.27"/>
        <g>
          <path class="cls-58" d="m7624.84,2831.81c-54.05,15.36-98.46,57.78-114.23,112.01-20.1-6.97-38.94-6.22-58.23-2.12-16.85,3.58-33.57,14-46.18,27.04-13.19-7.23-29.29-9.65-45.28-5.54-30.98,7.96-52.41,39.52-44.56,71.21,1.99,8.03,5.7,15.24,10.62,21.36-24.13,23.07-35.54,57.68-27.51,90.37,3.29,13.39,9.49,25.36,17.8,35.48-10.65,4.53-20.64,10.03-29.91,16.34-14.95-24.56-45.01-35.59-72.61-29.04-33.69,7.99-58.39,41.69-50.36,76.33,6.05,26.09,29.29,44.55,55.61,47.4-2.7,10.64-4.24,21.6-4.55,32.72-54.69-13.53-107.85-15.25-162.17-4.17-106.87,21.78-202.57,101.82-238.42,207.75-51.22-55.16-122.74-89.37-197.28-97.77,3.33-12.43,4.07-25.64,1.67-38.96-9.48-52.59-63.45-84.43-114.55-75.7-22.37,3.82-43.21,14.89-58.64,31.57-34-20.27-74.65-27.76-113.71-21.71-69.36,10.76-129.07,64.89-139.72,135.39-7.43-1.07-14.93-1.88-22.49-2.44-26.81-82.9-110.54-135.48-196.23-132.7-14.24-43.85-59.82-70.44-104.96-65.28-27.11,3.1-52.33,17.16-68.85,38.93-30.05-17.11-65.13-24.36-99.52-20.96-84.69,8.35-154.85,82.86-147.54,169.69,1.87,22.28,8.85,43.99,20.28,63.22-36.3,17.75-68.74,38.75-99.7,64.71-63.89-77.85-166.14-121.03-264.4-114.08-29.92,2.12-58.58,8.01-87.8,16.8-4.48-51.38-51.89-88.38-102.26-86.53-16.65.62-32.19,5.14-45.72,12.6-10.16-25.43-35.99-41.43-63.13-40.69-34.49.92-64.57,29.14-63.89,64.35,0,.06.01.11.01.17-2.29-.03-4.57-.06-6.87-.02-23.02.46-45.98,4.71-67.62,12.63-6.32-82.93-80.81-145.1-162.39-145.1-74.56,0-144.17,51.87-159.6,125.92-50.86-35.53-112.65-56.27-173.68-57.16-45.43-.66-90.64,6.66-133.46,24.57,1.95-5.54,3.14-11.44,3.38-17.57,1.4-35.08-27.87-63.98-62.31-65.61-6.1-.29-12.04.26-17.72,1.51-9.51-42.02-47.56-72.42-90.19-74.86-51.56-2.96-99.62,35.81-103.08,88.17-1.11,16.79,2.52,33.68,10.36,48.57-23.1,4.33-45.72,11.22-67.3,20.53-15.25-68.69-76.88-118.86-146.23-124.74-77.16-6.55-153.49,43-172.04,119.56-11.22-2.09-22.75-3.92-34.19-4.95-55.74-5-109.82.72-164.37,16.12-6.91-26.05-29.98-44.91-56.47-48.15-16.59-2.03-33.42,2.05-47.16,11.6-15.99-16.33-37.28-26.79-59.92-29.79-35.19-4.66-71.47,9.34-93.24,37.63.03-.21.07-.4.1-.6,4.82-35.11-22.09-66.5-56.28-71.5-34.18-5-69.03,17.41-74.4,52.39-.54,3.5-.74,7-.65,10.45-22.4,3.77-44.14,11.24-64.11,22.06-20.24-42.92-61.8-72.97-108.35-80.81-15.82-2.66-31.44-2.73-46.43-.58-12.38-66.01-67.48-117.12-132.8-129.32-3.03-.57-6.06-1.03-9.09-1.43.92-3.06,1.68-6.19,2.28-9.39,9.71-51.82-27.61-101.16-78.31-111.13-43.25-8.5-89.22,12.83-108.04,53.26-43.24-42.54-96.77-69.77-154.39-83.5-4.94-1.18-10.06-2.11-15.08-2.98-18.8-20.75-43.86-35.3-71.13-41.59-17.18-3.96-35.05-4.65-52.47-1.93-2.22-27.99-23.06-51.27-50.12-57.83-.46-.11-.93-.19-1.39-.3.1-.41.23-.81.33-1.22,12.89-53.61-22.7-107.71-75.4-120.96-5.77-1.45-11.55-2.35-17.28-2.82.84-29.68-19.9-56.24-48.45-63.63-24.93-6.46-51.99,2.59-67.67,23.15-20.03-14.85-42.8-25.87-66.85-32.42-56.73-15.45-118.67-4.97-166.85,28.84-5.99-14.06-17.02-25.98-31.56-33.06,2.31-3.7,4.17-7.78,5.43-12.14,7.64-26.62-8.77-54.45-35.03-62.3-13.4-4-27.19-2.32-38.62,3.6-15.87-16.29-29.51-26.39-49.83-33.75-5.3-1.92-11.26-3-17.05-3.68v1554.95s6389.29,0,6389.29,0v-1267.76c-39.51-54.02-112.34-77.15-177.28-58.69Z"/>
          <path class="cls-8" d="m7753.51,3200.35c-71.27-7.9-142.02-3.77-210.07,14.56-24.6,6.62-48.98,15.46-72.98,25.2-46.4-50.47-118.97-70.59-185.18-54.58-70.56,17.06-128.49,74.12-142.57,145.94-15.14-2.75-30.6-3.75-45.97-2.98-.25-1.54-.55-3.08-.88-4.62-11.04-50.45-63.69-80.55-113.19-70.25-40.12,8.35-72.57,41.89-76.91,83.06-39.57-21.04-83.35-26.09-126.08-19.11-66.84,10.92-126.65,62-147.5,128.45-34.12-14.27-71.94-18.66-108.44-12.94-60.5,9.47-115.14,46.84-144.07,101.11-35.45-16.56-73.47-21.15-111.2-17.08-75.75,8.18-145.59,65.33-165.41,141.47-7.7,3.3-15.31,6.78-22.81,10.4-71.75-92.56-190.97-142.79-305.59-132.45-79.59,7.18-155.66,38.28-215.36,93.85-23.91-25.75-49.37-48.79-77.31-70.1,23.07-18.14,36.59-46.59,35.06-76-2.65-51.17-48.81-89.91-99.24-87.8-1.61.06-3.21.17-4.8.31-28.98-69.25-100.11-114.1-174.85-112.37-97.1,2.25-180.46,82.93-180.06,181.19,0,1.75.05,3.49.11,5.22-26.94,5.89-53.42,13.92-79.1,23.97-20.82-44.07-66.54-72.45-115.04-73.23-66.49-1.07-126.81,50.45-130.39,117.98-9.25-1.24-18.65-2.04-28.18-2.35-122.87-3.97-242,77.89-269.39,200.21-30.35-36.98-75.76-59.54-123.33-62.96-87.06-6.25-173.57,55.04-181.57,145.02-.06.65-.07,1.3-.12,1.95-4.43-.55-8.91-1.12-13.36-1.47-33.59-2.65-67.57-1.71-101.21,4.25-5.71-92.73-84.89-164.6-174.69-175.35-68.42-8.19-139.53,18.6-182.19,73.5-.72-.27-1.44-.54-2.16-.81,13.68-102.21-66.58-192.77-165.17-208.32-21.73-3.43-44-3.37-65.72.23-12.79-31.3-41.98-53.64-75.11-59.37-42.1-7.28-86.88,13.3-105.22,52.66-11.18-6.38-23.13-11.78-35.71-16.05.27-1.31.54-2.62.78-3.94,18.82-100.49-56.15-198.46-152.11-216.15-39.21-7.23-79.44-4.76-117.44,11.3-11.52-30.34-38.38-52.96-69.9-60.16-49.31-11.26-102.66,17.72-114.69,68.03-.91,3.81-1.53,7.63-1.93,11.43-60.95-6.85-121.48-1.44-178.94,20.97-65.56-60.5-141.92-104.77-226.29-128.77-37.52-10.68-75.9-17.04-114.79-19.49v984.33s5566.83,0,5566.83,0v-1037.87c-27.41,15.96-47.58,46.82-48.6,79.95Z"/>
          <path class="cls-30" d="m7728.11,3312.99c-55.26,23.97-86.59,89.28-62.04,146.11,1.14,2.64,2.42,5.19,3.75,7.7-8.85,6.42-16.98,13.82-24.19,22.04-5.18-4.75-11.1-8.64-17.49-11.61,6.9-11.74,8.08-26.2,2.71-38.74-9.87-23.05-37.81-32.57-60.57-23.39-22.68,9.14-35.83,35.27-26.3,58.46,1.93,4.69,4.64,8.87,7.9,12.46-15.32,11.79-25.55,29.67-27.09,49.02-28.67-13.88-60.65-21.88-92.04-22.5-66.8-1.31-132.54,23.87-179.12,74.16-.08-4.55-.9-9.15-2.55-13.63-8.67-23.62-36.1-34.55-59.34-26.62-14.36,4.9-25.83,16.39-30.19,30.99-5.26-1.1-10.66-1.9-16.19-2.31-60.75-4.49-120.35,38.59-128.07,100.43-4.44,35.56,10.19,71.11,37.81,93.81-7.37,9.39-13.98,19.39-19.71,29.86-15.3-.59-28.57.46-43.62,3.32-33.97-33.41-83.83-47.3-130.46-39.22.31-5.69-.41-11.51-2.29-17.22-8.97-27.2-39.95-40.4-66.64-32.44-19.41,5.78-34.85,22.14-37.82,42.41-9.92-1.24-20.29-.56-30.55,2.39-9.24,2.65-17.53,6.89-24.63,12.28-30.28-33-78.19-45.35-121.11-33.87-58.33,15.6-100.63,75.35-83.95,135.77,4.25,15.41,12.1,29.68,22.7,41.63-23.62,15.77-44.98,34.95-63.02,56.89-57.39-47.72-134.73-63.55-204.69-48.38-20.8,4.51-41.6,11.84-61.05,21.95-10.02-36.03-49.23-55.48-84.68-48.5-11.36,2.24-22.16,7.03-31.37,14.07-10.65-16.79-31.36-24.72-50.67-21.13-24.15,4.49-43.95,28.64-38.04,52.26,0,.04.02.07.03.11-1.66.25-3.35.45-4.97.77-16.34,3.27-32.28,8.37-47.29,16.55-15.44-58.51-77.81-91.92-135.72-82.91-14.92,2.32-29.41,7.31-42.55,14.75-.24-5.2-.75-10.43-1.65-15.69-12.81-74.79-88.56-122.25-161.66-112.74-8.93,1.16-17.54,3.11-25.8,5.7-8.81-8.55-20.56-13.38-32.81-13.67-4.4-.11-8.68.38-12.75,1.36-7.67-29.92-35.88-50.52-66.3-51.56-36.66-1.25-71.18,26.38-72.82,64.04-.52,11.94,2.39,23.84,8.28,34.24-16.57,3.89-32.62,8.57-48.2,15.55-12.24-48.93-57.9-83.08-107.44-86.25-55.03-3.51-109.82,31.85-122.2,86.98-8.12-1.33-16.45-2.47-24.73-3.07-40.18-2.89-79.28,1.77-118.32,13.41-5.38-18.55-22.47-31.5-41.43-33.47-11.96-1.24-24.02,1.81-33.85,8.75-11.81-11.44-27.31-18.59-43.62-20.46-25.23-2.91-51.3,7.18-66.73,27.62.02-.14.05-.28.06-.42,3.06-25.22-17.17-46.93-41.54-50.1-24.37-3.17-49.49,12.67-52.97,37.82-.35,2.49-.44,4.97-.33,7.41-6.59,1.18-13.03,2.78-19.29,4.77-29.26-32.55-70.09-48.69-112.18-50.05-43.62-1.4-88.77,18.74-116.64,53.93-25.99-18.06-61.79-19.71-88.79-2.9-3.65,2.27-6.99,4.81-10.05,7.54-16.48-14.52-41.49-17.15-60.33-5.77-15.7,9.49-24.09,28.05-19.73,46.06-11.32,1.93-22.44,5.11-33.05,9.53-15.33-18.82-37.83-32.42-60.97-36.44-13.19-2.29-25.43-2.27-39.15-.89-2.43-20.45-19.11-36.36-38.83-40.62-.35-.07-.69-.14-1.04-.2.06-.29.15-.58.22-.88,8.6-39.69-21.32-76.67-59.23-85.29-4.33-.98-8.66-1.59-12.94-1.87-.17-21.82-16.91-39.95-37.67-44.85-18.27-4.31-38.28,1.8-49.81,16.91-16.31-10.11-32.47-17.67-50.57-22.62-40.77-11.16-87.76-3.37-123.47,21.38-5.09-10.4-13.77-18.6-24.3-23.36,1.63-2.64,2.92-5.55,3.75-8.66,5.24-19.68-8.64-38.94-27.57-44.16-10.1-2.78-20.29-1.54-28.64,2.71-10-11.42-23.31-19.68-37.88-23.83-9.68-2.76-19.81-3.53-29.69-2.5v584.18s4193.79,0,4193.79,0v-852.26c-24.42-5.37-50.58-3.18-74.01,6.98Z"/>
        </g>
        <g>
          <path class="cls-46" d="m4541.11,4158.31s-668.45-1.2-1479.83,0c-223.51.34-457.88-.65-692.08,0-99.68.28-199.36-.37-298.14,0-58.44.18-116.53-.25-174.14,0-110.13.46-218.53-.55-323.92,0-391.04,2.12-741.07-4.09-987.7,0v-1738.72l485.53-91.18,226.87,155.77,574.83,394.65,120.44,82.72,103.28,88.13,159.92,136.47,239.7,204.51,12.7,10.86,252.26-66.01,427.71-111.92,7.89,2.92,114.45,42.47,344.05,127.64,153.31,134.41,15.98,14.03,22.42,19.66,215.76,189.19,112.03,98.26,366.68,306.12Z"/>
          <path class="cls-10" d="m4541.11,4158.31s-2909.08-17.33-3955.8,0v-313.58l590.82,129.92,1159.33-64.44,729.93-199.47,162.55,55.95,426.99-370.05,886.18,761.67Z"/>
          <polygon class="cls-50" points="3310.88 3268.99 3110.86 3456.69 2561.4 3608.03 2335.47 3910.21 1916.79 3757.89 1650.3 3462.78 1562.19 3022.23 1360.51 3011 1070.84 2328.41 1024.25 2663.75 585.32 2958.15 585.32 2419.58 1070.84 2328.41 1992.97 2961.54 2508.57 3401.54 3188.54 3223.62 3310.88 3268.99"/>
          <g class="cls-79">
            <path class="cls-64" d="m3522.73,3798.74c-575.28-63.42-1119.41-192.12-1663.17-362.46,480.48,218.93,970.19,395.53,1495.68,515.39-428.09-45.33-850.75-118.02-1259.99-235.44-330-94.69-664.71-180.93-988.04-292.06,374.64,208.98,789.06,379.27,1197.81,528.62,246.9,90.22,499.61,146.43,756.26,205.52-374.88.55-780.31-1.61-1164.36,0-211.99-53-423.25-89.71-635.41-141.99-229.6-56.59-456.84-118.76-676.2-198.14v-85.67c36.19,9.84,72.62,19.19,109.33,28.01,318.28,76.57,645.48,122.91,969.12,179.53-367.09-104.43-736.96-206.65-1078.45-365.46v-154.32c18.79,8.52,37.71,16.89,56.71,25.14-18.99-12.58-37.89-25.29-56.71-38.15v-271.93c94.87,39.47,191.23,76.02,289.39,108.78-99.82-53.93-195.73-112.71-289.39-174.2v-62.22c176.59,111.73,369.93,193.83,557.73,301.85,103.28,59.41,207.9,81.57,312.19,122.49-286.76-141.29-548.29-306.79-790.17-502.86-26.61-21.55-53.18-43.11-79.75-64.6v-137.55c128.5,78.04,258.66,153.89,394.53,221.73,423.08,211.31,896.6,359.25,1357.38,493.29-351.66-123.91-703.91-261.81-1032.43-428.26-253.09-128.2-480.82-285.91-708.72-445.8,306.27,160.73,957.01,402.13,957.01,402.13.59-1-266.58-209.23-382.39-321.47,226.62,86.98,462.28,163.28,701.84,230.21l120.44,82.71,103.28,88.15c-96.05-7.29-192.16-14.79-288.52-21.59,148.64,55.18,297.83,108.38,448.44,158.05l252.4,215.39,252.26-66.02c43.94,11.33,88.05,22.27,132.38,32.7,300.84,70.88,606.73,122.86,915.04,162.83l38.4,33.68c-363.05-7.32-724.85-29.07-1083.98-74.81,425.43,123.04,860.34,203.11,1299.74,263.99l112.03,98.24c-217.77-12.8-435.15-29.57-651.71-53.43Z"/>
          </g>
          <g class="cls-74">
            <path class="cls-53" d="m2495.87,3390.67l-400.62,325.57-522.24,442.07c-391.04,2.12-741.07-4.09-987.7,0h0l927.8-721.88-927.8,264.12v-247.5l609.56-497.52c-4.39,1.14-330.83,86.16-609.56,158.88v-160.29c217-144.14,487.74-322.98,712.39-469.92l574.83,394.65,120.44,82.72,103.28,88.13,159.92,136.47,239.7,204.51Z"/>
            <path class="cls-53" d="m2913.93,4052.3l42.73-255.75-587.45,361.76c-99.68.28-199.36-.37-298.14,0l448.19-493.89,677.17-437.89,114.45,42.47,344.05,127.64,153.31,134.41,15.98,14.03-910.3,507.22Z"/>
          </g>
        </g>
        <g>
          <g>
            <path class="cls-47" d="m0,1786.02v3316.35s1671.9,0,1671.9,0l-125.31-639.75s-318.28-1333.48-332.52-1338.67c-5.45-1.95-61.1-42-127.7-90.59l-74.98-446.11-128.06-70.44-183.76-101.09c-20.66-65.89-34.53-113.29-32.7-116.59-10.72-3.2-129.07-55.89-255.16-112.49-35.08-15.75-70.76-31.8-104.89-47.2l-131.36-161.33-20.98-23L0,1786.02Z"/>
            <path class="cls-63" d="m666.87,2299.12c.82.25,1.05.25.55-.1-.28-.2-.41-.1-.55.1Z"/>
          </g>
          <g class="cls-74">
            <path class="cls-53" d="m770.57,2739.38c11.4,110.49,25.33,221.83,44.61,331.07,2.15,10.15,3.99,21.25,8.15,31.4.64,1.35,1.65,3.1,2.79,4.3,7.37,7.6,22.12,22.6,29.73,30.4,69.53,71.74,140.52,142.99,208.03,216.73l.96,1.1.5.55c.5.75,1.01,1.4,1.65,2l.23.3s-.14-.05-.18-.05c-.23-.05-.41-.3-.46-.4l1.51,5.75c61.42,261.73,133.92,608.19,192.14,873.97l127.07-18.07c-75.23-303.16-192.18-607.32-280.23-841.75-4.51-11.99-6.73-25.8-11.86-37.8l-.73-1.5-.73-.95-1.47-1.85c-.78-.95-3.11-3.75-3.8-4.5-1.01-1-5.04-5.15-6.14-6.25-79.28-77.69-160.35-151.84-241.24-227.18l-2.29-2.1-1.1-1.05s-.05,0-.05-.05c-6.41-15.9-9.66-34.45-13.69-51.55-7.15-33.2-13.51-66.74-19.69-100.29-11.82-66.14-24.55-135.54-33.71-202.23Z"/>
            <path class="cls-53" d="m748.22,3462.72l6.63,4.04c40.4,131.17,80.52,262.68,123.89,392.65,3.98,11.53,11.77,34.32,16.34,45.15l-62.14,42.4c-2.41-5.39-4.85-11-6.75-16.63-10.29-33.29-73.8-36.86-82.45-70.53-27.65-109.55-59.61-221.78-85.61-331.74l-238.75-244.11-3.87-2.77-.25-4.38-15.03-265.79s30.42,249.32,31.6,258.96c6.86,4.18,316.4,192.76,316.4,192.76Z"/>
            <polygon class="cls-53" points="0 2845.81 0 3002.5 215.96 2698.98 220.99 2691.88 220.77 2684.53 208.31 2298.92 208.21 2295.97 206.98 2294.02 73.97 2086.99 191.86 2301.22 179.73 2675.53 0 2845.81"/>
          </g>
          <path class="cls-32" d="m666.87,2299.12c.82.25,1.05.25.55-.1-.28-.2-.41-.1-.55.1Z"/>
          <g>
            <path class="cls-32" d="m469.7,2769.42l280.81,566.7,339.57,1151.24,395.59,121.14-294.37-1293.78s-267.76-278.02-267.76-303.72c0-16.1-22.99-290.82-40.21-494.2l-183.76-101.09c-20.66-65.89-34.53-113.29-32.7-116.59-10.72-3.2-129.07-55.89-255.16-112.49l57.98,582.8Z"/>
            <polygon class="cls-32" points="0 1786.02 0 2372.56 316.22 2961.86 154.49 1955.1 0 1786.02"/>
            <path class="cls-32" d="m342.37,3243.43S158.98,3089.54,0,2951.56v990.81s734.2,88.74,734.2,88.74l-391.83-787.68Z"/>
          </g>
        </g>
        <g>
          <path class="cls-3" d="m1913.43,4998.28c164.92-5.26,189.39-46.35,72.82-46.35s-211.94-22.3-211.94-49.57,183.29-49.57,407.32-49.57,460.94-13.6,526.47-30.23c65.53-16.63,43.45-30.24-49.08-30.24s-168.24-21.46-168.24-47.69,160.3-47.7,356.22-47.7,413.16-14.45,482.77-32.11c69.6-17.66,70.52-32.11,2.02-32.11s-124.54-20.61-124.54-45.82,137.3-45.81,305.12-45.81,365.4-15.29,439.08-33.99c73.67-18.69,97.57-33.98,53.11-33.98s-80.84-19.77-80.84-43.94,114.31-43.94,254.03-43.94,317.64-16.14,395.38-35.86c77.74-19.72,124.63-35.86,104.2-35.86s-37.14-18.92-37.14-42.06,91.32-42.06,202.93-42.06,401.6-70.63,401.6-70.63h1361.24s235.74,70.63,326.47,70.63,164.96,18.93,164.96,42.06-13.59,42.06-30.19,42.06,21.51,16.14,84.71,35.86c63.19,19.72,207.83,35.86,321.4,35.86,78.08,0,146.4,9.35,181.48,23.04v55.33c-11.21,5.95-25.35,9.51-40.69,9.51-35.63,0-17.22,14.87,40.69,33.19v596.05H1622.01c-24.23,0-44.17-.69-60.23-1.95v-47.37c75.66-24.81,219.07-50.54,351.65-54.77Z"/>
          <path class="cls-57" d="m3723.57,4998.28c87.35-5.26,100.31-46.34,38.57-46.34s-112.26-22.31-112.26-49.57,97.09-49.57,215.76-49.57,244.15-13.6,278.87-30.24c34.71-16.62,23.01-30.23-26-30.23s-89.12-21.47-89.12-47.7,84.91-47.69,188.69-47.69,218.85-14.45,255.72-32.11c36.87-17.66,37.36-32.11,1.07-32.11s-65.97-20.62-65.97-45.82,72.73-45.82,161.62-45.82,193.56-15.29,232.58-33.98c39.03-18.69,51.68-33.98,28.13-33.98s-42.82-19.78-42.82-43.94,60.55-43.94,134.56-43.94,168.25-16.14,209.43-35.86c41.18-19.72,66.02-35.86,55.2-35.86s-19.67-18.92-19.67-42.06,48.37-42.06,107.49-42.06,212.73-70.63,212.73-70.63h923.45s146.64,70.63,203.08,70.63,102.61,18.93,102.61,42.06-8.44,42.06-18.78,42.06,13.38,16.14,52.69,35.86c39.31,19.72,129.27,35.86,199.93,35.86s128.46,19.77,128.46,43.94-18.39,43.94-40.88,43.94-10.4,15.29,26.86,33.98c37.25,18.69,137.17,33.98,222.03,33.98s154.29,20.62,154.29,45.82-28.34,45.82-62.98,45.82-34.18,14.45,1.02,32.11c35.2,17.66,145.06,32.11,244.13,32.11,45.39,0,86.96,4.51,118.73,11.91v81.56c-7.53,1.24-15.46,1.91-23.66,1.91-46.8,0-57.96,13.6-24.83,30.23,9.62,4.83,26.56,9.39,48.49,13.45v266.35H3569.2c-151.58,0,13.02-95.56,154.37-104.08Z"/>
          <path class="cls-12" d="m4705.49,4983.37c3.54-55.38,92.27-52.36,126.28-58.63,40.9-7.53,146.89,28.55,163.21-35.76,2.57-10.12-10.49-28.19-15.22-35.74-11.25-18.02-54.26-30.36-52.16-56.41,3.95-48.6,77.92-50.56,110.43-56.4,37.62-6.76,124.57,10.21,149.67-37.98,3.7-7.1,2.93-29.33.63-37.97-5.18-19.38-40.88-33.25-38.61-54.19,4.53-41.77,70.41-43.75,94.59-54.19,33.48-14.44,106.98-8.63,136.12-40.19,6.07-6.58,16.74-27.95,16.47-40.19-.39-16.8-27.57-35.72-25.06-51.98,5.36-34.77,58.49-41.85,78.75-51.97,30.01-14.97,94.13-20.28,122.57-42.41,9.27-7.22,29.59-25.67,32.3-42.42,2.09-12.88-14.42-37.33-11.51-49.75,6.43-27.42,46.97-38.11,62.91-49.75,9.42-6.88,24.78-17.41,41.54-28.68h710.73c16.75,11.27,32.11,21.79,41.53,28.68,15.94,11.63,56.47,22.33,62.91,49.75,2.91,12.41-13.6,36.86-11.51,49.75,2.72,16.74,23.03,35.19,32.31,42.42,28.44,22.13,92.56,27.43,122.57,42.41,20.26,10.12,73.39,17.19,78.75,51.97,2.51,16.26-24.67,35.17-25.06,51.98-.28,12.24,10.4,33.61,16.47,40.19,29.14,31.57,102.64,25.75,136.12,40.19,24.19,10.44,90.07,12.41,94.59,54.19,2.27,20.94-33.43,34.8-38.61,54.19-2.31,8.64-3.08,30.87.62,37.97,25.1,48.19,112.75,23.95,149.67,37.98,28.13,10.69,106.49,7.8,110.43,56.4,2.12,26.05-40.9,38.39-52.15,56.41-4.72,7.56-17.79,25.62-15.22,35.74,16.32,64.3,122.87,22.04,163.21,35.76,32.09,10.91,122.74,3.25,126.28,58.63,2,31.38-61.33,27.94-65.7,58.62-2.32,16.26,15.84,42.62,22.57,54.82.95,1.73,2.06,3.61,3.23,5.55h-2616.47c1.06-1.83,2.07-3.68,2.97-5.55,6.2-12.99,24.89-38.55,22.57-54.82-4.38-30.68-67.71-27.24-65.7-58.62Z"/>
        </g>
        <g>
          <path class="cls-44" d="m9082.2,2082.29v3020.07h-1735.05l13.34-93.87c1.21-8.6,26.88-352.25,51.72-686.58,23.83-320.61,46.89-632.63,46.89-632.63l120.05-220.04,45.36-506.04h26.53l28.89-203.27h291.87l499.37-304.78c33.12-37.41,66.46-74.94,98.49-110.8,116.4-130.24,214.69-238.4,214.69-238.4l200.4,20.18,21.96,2.21,75.49-46.05Z"/>
          <g class="cls-78">
            <path class="cls-53" d="m7893.12,3012.3l-48.55,620.98-.26,3.33-1.49,3.06-188.9,387.11-65.2,1075.59h-110.91c36.37-268.3,148.19-1084.38,149.06-1095.03l2.56-4.88,200.02-376.89,63.68-613.27Z"/>
            <polygon class="cls-53" points="8242.03 3368.47 8221.59 3804.25 8221.45 3806.93 8220.36 3809.64 8041.98 4245.93 8016.11 5102.36 7928.74 5102.36 8011.79 4235.82 8012.28 4228.19 8014.58 4223.12 8208.2 3798.72 8242.03 3368.47"/>
            <polygon class="cls-53" points="9082.2 4101.85 9082.2 4364.42 8818.42 3782.51 8813.19 3773.87 8813.37 3763.11 8809.16 3046.84 8845.64 3750.87 9082.2 4101.85"/>
            <path class="cls-53" d="m8535.83,3808.09c0,1.43-1.26,625.51-1.26,626.83-.14,2.01-28.34,551.62-34.38,667.45h-108.58l114.62-674.03,29.61-620.24Z"/>
          </g>
          <path class="cls-25" d="m9082.2,2082.29v934.62l-152.94,857.98v.08l-19.46,109.09v.04l-96.62,541.9-61.49-499.14-164.49,1075.51h-282.39c89.95-608.7,215.49-1444.49,215.49-1444.49l-278.3,339.78,82.33-876.88s-312.74,813.8-312.74,830.1c0,10.34-90.27,670.93-156.13,1151.49h-508.31l13.34-93.87c1.21-8.6,26.88-352.25,51.72-686.58l365.03-764.81,91.65-797.18h102.92l499.37-304.78c33.12-37.41,66.46-74.94,98.49-110.8l-33.86,383.7,277.38-431.53,6.78,778.17,5.66-32.65v-.08l7.22-41.48v-.16l151.9-874.21,21.96,2.21,75.49-46.05Z"/>
        </g>
        <polygon class="cls-17" points="4541.11 4158.31 3608.32 4728.04 1795.6 4672.81 1695.18 4157.73 4541.11 4158.31"/>
        <g>
          <path class="cls-45" d="m0,3764.71v1337.65s5475.92,0,5475.92,0c-445.86-209.88-1307.52-632.52-1307.52-632.52l-1217.09-79.13-78.44-5.11s-684.9-447.88-709.67-447.88c-1.33,0-6.88-.65-16.09-1.84-121.46-15.84-885.74-129.82-1250.57-184.36-117.4-17.57-193.43-28.94-193.43-28.94l-153.11,9.18-275.18,16.49L0,3764.71Z"/>
          <g class="cls-74">
            <polygon class="cls-53" points="0 5012.05 0 5102.36 31.64 5102.36 376.67 4605.6 913.39 4220.36 358.7 4584.18 357.05 4585.26 355.39 4587.38 0 5012.05"/>
            <path class="cls-53" d="m356.9,5102.36h133.83c61.09-85.61,87.82-191.27,141.53-267.05l253.94-165.74-272.95,140.58-1.98,1.01-2.48,2.88-129.82,149c-29.88,34.31-84.2,96.41-113.76,129.96-2.2,2.48-5.29,5.98-8.32,9.36Z"/>
            <path class="cls-53" d="m3275.14,4635.19l909.25,123.34,483.77,343.84h283.31c-348.69-107.46-748.87-376.06-753.87-379.33-3.6-.86-890.82-84.53-922.46-87.84Z"/>
            <path class="cls-53" d="m3651.7,4836.14l470.84,102.42c45.32,43.31,109.91,104.98,171.18,163.8h109.26c-71.35-59.08-209.84-153.43-259.48-194.22l-4.46-3.67-4.43-.65-482.9-67.68Z"/>
            <path class="cls-53" d="m1581.48,4032.62l251.96,104.9c199.55,221.9,396.97,445.64,601.88,662.65,9.61,9.68,19.12,19.94,29.95,28.98,1.26.94,2.48,1.94,4,2.81,2.63,1.37,2.09,1.44,7.09,2.74,2.27.32,3.56.43,3.92.47h-.61c-.9.11-3.1-.36-3.42-.47l.25.11c129.6,55.94,185.04,125.08,314.67,185.27l176.11,82.28h237.71c-234.14-101.74-508.64-221.9-712.08-304.27-1.08-.36-3.46-1.19-4.57-1.51.72.58,1.15.94,1.33,1.12-.47-.32-3.85-3.02-5.94-4.97-6.98-6.23-14.15-13.07-21.2-19.87-211.75-209.95-416.48-427.1-623.12-642.2,0-.04-.76-.79-.76-.79l-.86-.32-256.32-96.91Z"/>
            <path class="cls-53" d="m1456.31,4589.9l205.2,358.13-2.06,154.33h114.53s-76.54-168.8-76.54-168.8l-1.33-2.92c-.43-.86-232.13-329.69-239.8-340.74Z"/>
          </g>
          <g class="cls-76">
            <path class="cls-53" d="m2698.67,4635.19l643.28,174.67s311.36,170.21,514.4,292.5h1201.07s-912.92-488.56-912.92-488.56l-1108.87-116.39-84.31-106.7-78.44-5.11s-684.9-447.88-709.67-447.88c-1.33,0-6.88-.65-16.09-1.84l551.56,699.3Z"/>
            <path class="cls-53" d="m0,3764.71v708.95c130.97,126.5,250.45,239.11,250.45,239.11l316.51,389.59h612.36s-522.29-554.47-522.29-554.47l713.46,276.87,345.06,277.6h1065.37s-670.39-432.79-670.39-432.79l-495.4-449.21-718.6-468.83c-117.4-17.57-193.43-28.94-193.43-28.94l-153.11,9.18,659,519.1,126.14,171.39-836.28-353.81-224.05-320.19L0,3764.71Z"/>
          </g>
        </g>
      </g>
    </g>
  </g>
</svg>