<?xml version="1.0" encoding="utf-8"?>
<!-- Generator: Adobe Illustrator 28.0.0, SVG Export Plug-In . SVG Version: 6.00 Build 0)  -->
<svg version="1.1" id="Ebene_1" xmlns="http://www.w3.org/2000/svg" xmlns:xlink="http://www.w3.org/1999/xlink" x="0px" y="0px"
	 viewBox="0 0 32.2 32.2" style="enable-background:new 0 0 32.2 32.2;" xml:space="preserve">
<style type="text/css">
	.st0{fill:#87898F;}
</style>
<g>
	<path class="st0" d="M9.9,30.9c-1.9-0.8-3.6-2-5.1-3.5s-2.6-3.2-3.5-5.1c-0.8-1.9-1.3-4-1.3-6.2s0.4-4.2,1.3-6.2s2-3.6,3.5-5.1
		S8,2.2,9.9,1.3s4-1.3,6.2-1.3s4.2,0.4,6.2,1.3c1.9,0.8,3.6,2,5.1,3.5S30,8,30.9,9.9s1.3,4,1.3,6.2s-0.4,4.2-1.3,6.2
		c-0.8,1.9-2,3.6-3.5,5.1s-3.2,2.6-5.1,3.5s-4,1.3-6.2,1.3S11.8,31.8,9.9,30.9z M16,17.9c0.3,0,0.6-0.1,0.8-0.3
		c0.2-0.2,0.3-0.5,0.3-0.8V6.2c0-0.3-0.1-0.6-0.3-0.8c-0.2-0.2-0.5-0.3-0.8-0.3c-0.3,0-0.6,0.1-0.8,0.3s-0.3,0.5-0.3,0.8v9.5H7.8
		c-0.3,0-0.6,0.1-0.8,0.3c-0.2,0.2-0.3,0.5-0.3,0.8s0.1,0.6,0.3,0.8c0.2,0.2,0.5,0.3,0.8,0.3C7.8,17.9,16,17.9,16,17.9z"/>
</g>
</svg>
