<?xml version="1.0" encoding="utf-8"?>
<!-- Generator: Adobe Illustrator 28.0.0, SVG Export Plug-In . SVG Version: 6.00 Build 0)  -->
<svg version="1.1" id="Ebene_1" xmlns="http://www.w3.org/2000/svg" xmlns:xlink="http://www.w3.org/1999/xlink" x="0px" y="0px"
	 viewBox="0 0 7.1 16" style="enable-background:new 0 0 7.1 16;" xml:space="preserve">
<style type="text/css">
	.st0{fill:#DCE1EB;}
</style>
<g>
	<path class="st0" d="M7.1,7.8C7.1,7.9,7,8,7,8l-5.6,5.5c-0.1,0.1-0.3,0.2-0.5,0.2c-0.1,0-0.2,0-0.3-0.1c-0.1-0.1-0.2-0.1-0.2-0.2
		c-0.1-0.1-0.2-0.2-0.2-0.3c0-0.2,0.1-0.3,0.2-0.5l5.2-5.1L0.4,2.4C0.3,2.3,0.2,2.1,0.2,1.9c0-0.1,0-0.2,0.1-0.3s0.1-0.2,0.2-0.2
		c0.1-0.1,0.2-0.1,0.3-0.1c0.2,0,0.3,0.1,0.5,0.2L7,7.1c0,0.1,0.1,0.2,0.1,0.2s0,0.2,0,0.3S7.2,7.8,7.1,7.8z"/>
</g>
</svg>
