<?xml version="1.0" encoding="utf-8"?>
<!-- Generator: Adobe Illustrator 28.0.0, SVG Export Plug-In . SVG Version: 6.00 Build 0)  -->
<svg version="1.1" id="Ebene_1" xmlns="http://www.w3.org/2000/svg" xmlns:xlink="http://www.w3.org/1999/xlink" x="0px" y="0px"
	 viewBox="0 0 34.9 32.4" style="enable-background:new 0 0 34.9 32.4;" xml:space="preserve">
<style type="text/css">
	.st0{fill:#87898F;}
</style>
<g>
	<path class="st0" d="M1.4,31C0.5,30.1,0,28.7,0,26.9V5.5c0-1.8,0.5-3.2,1.4-4.1S3.7,0,5.5,0h23.9c1.8,0,3.2,0.5,4.1,1.4
		c0.9,0.9,1.4,2.3,1.4,4.1v21.4c0,1.8-0.5,3.2-1.4,4.1c-0.9,0.9-2.3,1.4-4.1,1.4H5.5C3.7,32.4,2.3,31.9,1.4,31z M29.7,29.5
		c0.8,0,1.4-0.2,1.8-0.6c0.4-0.4,0.6-1,0.6-1.8V10.6c0-0.8-0.2-1.4-0.6-1.8c-0.4-0.4-1-0.6-1.8-0.6H5.2c-0.8,0-1.4,0.2-1.8,0.6
		c-0.4,0.4-0.6,1-0.6,1.8v16.5c0,0.8,0.2,1.4,0.6,1.8c0.4,0.4,1,0.6,1.8,0.6C5.2,29.5,29.7,29.5,29.7,29.5z M7.6,20
		c-0.1-0.1-0.2-0.3-0.2-0.6v-1c0-0.3,0.1-0.5,0.2-0.6s0.3-0.2,0.6-0.2h1c0.3,0,0.5,0.1,0.6,0.2s0.2,0.3,0.2,0.6v1
		c0,0.3-0.1,0.5-0.2,0.6c0,0.1-0.2,0.1-0.5,0.1h-1C7.9,20.1,7.7,20.1,7.6,20z M7.6,25.7c-0.1-0.1-0.2-0.3-0.2-0.6v-1
		c0-0.3,0.1-0.5,0.2-0.6s0.3-0.2,0.6-0.2h1c0.3,0,0.5,0.1,0.6,0.2c0.1,0.1,0.2,0.3,0.2,0.6v1c0,0.3-0.1,0.5-0.2,0.6
		s-0.3,0.2-0.6,0.2h-1C7.9,25.9,7.7,25.8,7.6,25.7z M13.4,14.2c-0.1-0.1-0.2-0.3-0.2-0.6v-1c0-0.3,0.1-0.5,0.2-0.6s0.3-0.2,0.6-0.2
		h1c0.3,0,0.5,0.1,0.6,0.2s0.2,0.3,0.2,0.6v1c0,0.3-0.1,0.5-0.2,0.6s-0.3,0.2-0.6,0.2h-1C13.7,14.4,13.5,14.4,13.4,14.2z M13.4,20
		c-0.1-0.1-0.2-0.3-0.2-0.6v-1c0-0.3,0.1-0.5,0.2-0.6s0.3-0.2,0.6-0.2h1c0.3,0,0.5,0.1,0.6,0.2s0.2,0.3,0.2,0.6v1
		c0,0.3-0.1,0.5-0.2,0.6c0,0.1-0.2,0.1-0.5,0.1h-1C13.7,20.1,13.5,20.1,13.4,20z M13.4,25.7c-0.1-0.1-0.2-0.3-0.2-0.6v-1
		c0-0.3,0.1-0.5,0.2-0.6s0.3-0.2,0.6-0.2h1c0.3,0,0.5,0.1,0.6,0.2c0.1,0.1,0.2,0.3,0.2,0.6v1c0,0.3-0.1,0.5-0.2,0.6
		s-0.3,0.2-0.6,0.2h-1C13.7,25.9,13.5,25.8,13.4,25.7z M19.2,14.2c-0.1-0.1-0.1-0.3-0.1-0.6v-1c0-0.3,0.1-0.5,0.2-0.6
		c0.1-0.1,0.3-0.2,0.6-0.2h1c0.3,0,0.5,0.1,0.6,0.2s0.2,0.3,0.2,0.6v1c0,0.3-0.1,0.5-0.2,0.6c-0.1,0.1-0.3,0.2-0.6,0.2h-1
		C19.6,14.4,19.4,14.4,19.2,14.2z M19.2,20c-0.1-0.1-0.1-0.4-0.1-0.7v-1c0-0.3,0.1-0.5,0.2-0.6c0.1-0.1,0.3-0.2,0.6-0.2h1
		c0.3,0,0.5,0.1,0.6,0.2s0.2,0.3,0.2,0.6v1c0,0.3-0.1,0.5-0.2,0.6c-0.1,0.2-0.3,0.2-0.6,0.2h-1C19.6,20.1,19.4,20.1,19.2,20z
		 M19.2,25.7c-0.1-0.1-0.1-0.3-0.1-0.6v-1c0-0.3,0.1-0.5,0.2-0.6c0.1-0.1,0.3-0.2,0.6-0.2h1c0.3,0,0.5,0.1,0.6,0.2
		c0.1,0.1,0.2,0.3,0.2,0.6v1c0,0.3-0.1,0.5-0.2,0.6c-0.1,0.1-0.3,0.2-0.6,0.2h-1C19.6,25.9,19.4,25.8,19.2,25.7z M25.1,14.2
		c-0.1-0.1-0.2-0.3-0.2-0.6v-1c0-0.3,0.1-0.5,0.2-0.6c0.1-0.1,0.3-0.2,0.6-0.2h1c0.3,0,0.5,0.1,0.6,0.2s0.2,0.3,0.2,0.6v1
		c0,0.3-0.1,0.5-0.2,0.6c-0.1,0.1-0.3,0.2-0.6,0.2h-1C25.4,14.4,25.2,14.4,25.1,14.2z M25.1,20c-0.1-0.1-0.2-0.3-0.2-0.6v-1
		c0-0.3,0.1-0.5,0.2-0.6c0.1-0.1,0.3-0.2,0.6-0.2h1c0.3,0,0.5,0.1,0.6,0.2s0.2,0.3,0.2,0.6v1c0,0.3-0.1,0.5-0.2,0.6
		c0,0.1-0.3,0.1-0.6,0.1h-1C25.4,20.1,25.2,20.1,25.1,20z"/>
</g>
</svg>
