<?xml version="1.0" encoding="UTF-8"?>
<svg id="Ebene_1" data-name="Ebene 1" xmlns="http://www.w3.org/2000/svg" viewBox="0 0 25 16">
  <defs>
    <style>
      .cls-1 {
        fill: #87898f;
        stroke-width: 0px;
      }
    </style>
  </defs>
  <path class="cls-1" d="m5.47,13.44c-.37-.19-.65-.45-.86-.79s-.3-.72-.3-1.15c0-.53.15-.99.45-1.38s.7-.66,1.18-.8c.05-.48.18-.93.39-1.34s.48-.78.82-1.09.72-.55,1.15-.72.88-.26,1.36-.26.94.08,1.36.25.8.4,1.13.71.61.68.84,1.1c.58,0,1.1.13,1.57.38s.83.59,1.1,1.02.4.91.4,1.45-.13,1.03-.39,1.47-.62.78-1.06,1.04-.95.38-1.51.38h-6.34c-.49,0-.92-.09-1.28-.28Zm5.47-9.04c-.1-.09-.15-.21-.14-.34s.05-.25.14-.34.21-.14.34-.14.25.05.34.14l.9.9c.09.09.14.21.14.34s-.05.25-.14.34-.2.14-.34.14-.25-.05-.35-.14l-.89-.9Zm5.29,4.56c-.28-.45-.67-.81-1.15-1.08s-1.04-.43-1.69-.48c-.09-.17-.19-.33-.29-.47s-.22-.28-.34-.4c.24-.42.58-.76,1.02-1.03s.92-.39,1.45-.39,1.02.13,1.46.39.79.61,1.05,1.05.39.93.39,1.46-.12,1-.37,1.43-.59.79-1.02,1.09c-.05-.59-.22-1.11-.51-1.56Zm-1.34-4.93c-.1-.1-.14-.21-.14-.34v-1.27c0-.13.05-.25.14-.34s.21-.14.34-.14.25.05.34.14.14.21.14.34v1.27c0,.13-.05.24-.14.34s-.21.15-.34.15-.25-.05-.34-.15Zm3.05,7.38c-.09-.09-.14-.21-.14-.34s.05-.25.14-.34.21-.14.34-.14.25.05.34.14l.91.9c.09.09.14.2.14.34s-.05.25-.14.34-.21.14-.34.14-.25-.04-.34-.14l-.91-.9Zm-.14-6.45c0-.13.04-.25.14-.34l.91-.9c.09-.09.21-.14.34-.14s.25.05.34.14.14.21.14.34-.05.25-.14.34l-.9.9c-.09.1-.21.15-.35.14s-.25-.05-.34-.14-.14-.21-.14-.34Zm1.4,3.39c-.1-.09-.15-.21-.15-.35s.05-.25.15-.34.21-.14.34-.14h1.27c.13,0,.25.05.34.14s.14.21.14.34-.05.25-.14.35-.21.14-.34.14h-1.27c-.13,0-.24-.05-.34-.14Z"/>
</svg>