<?xml version="1.0" encoding="utf-8"?>
<!-- Generator: Adobe Illustrator 28.0.0, SVG Export Plug-In . SVG Version: 6.00 Build 0)  -->
<svg version="1.1" id="Ebene_1" xmlns="http://www.w3.org/2000/svg" xmlns:xlink="http://www.w3.org/1999/xlink" x="0px" y="0px"
	 viewBox="0 0 12 12" style="enable-background:new 0 0 12 12;" xml:space="preserve">
<g>
	<path d="M3.7,11.5c-0.7-0.3-1.4-0.7-1.9-1.3S0.8,9,0.5,8.3S0,6.8,0,6s0.2-1.6,0.5-2.3s0.7-1.4,1.3-1.9s1.2-1,1.9-1.3S5.2,0,6,0
		c0.8,0,1.6,0.2,2.3,0.5s1.4,0.7,1.9,1.3s1,1.2,1.3,1.9S12,5.2,12,6s-0.2,1.6-0.5,2.3s-0.7,1.4-1.3,1.9s-1.2,1-1.9,1.3S6.8,12,6,12
		C5.2,12,4.4,11.8,3.7,11.5z M3.3,6.3c0.1,0.1,0.2,0.1,0.4,0.1h1.8v1.8c0,0.2,0,0.3,0.1,0.4S5.8,8.8,6,8.8c0.2,0,0.3,0,0.4-0.1
		s0.1-0.2,0.1-0.4V6.5h1.8c0.1,0,0.3,0,0.4-0.1S8.8,6.1,8.8,6c0-0.2,0-0.3-0.1-0.4S8.5,5.5,8.3,5.5H6.5V3.6c0-0.2,0-0.3-0.1-0.4
		S6.1,3.1,6,3.1c-0.1,0-0.3,0-0.4,0.1S5.5,3.5,5.5,3.6v1.8H3.6c-0.2,0-0.3,0-0.4,0.1S3.1,5.8,3.1,6C3.1,6.1,3.2,6.3,3.3,6.3z"/>
</g>
</svg>
