<?xml version="1.0" encoding="UTF-8"?>
<svg id="Ebene_1" data-name="Ebene 1" xmlns="http://www.w3.org/2000/svg" viewBox="0 0 25 16">
  <defs>
    <style>
      .cls-1 {
        fill: #000000;
        stroke-width: 0px;
      }
    </style>
  </defs>
  <path class="cls-1" d="m5.93,6.66L12.04,1.53c.22-.18.45-.28.71-.28s.49.09.71.28l6.1,5.13c.12.1.18.23.18.4,0,.14-.05.25-.15.33s-.21.12-.35.12c-.08,0-.16-.02-.23-.06s-.13-.08-.19-.13l-5.87-4.92c-.07-.06-.14-.09-.21-.09s-.14.03-.21.09l-5.87,4.92c-.06.05-.13.09-.2.13s-.14.06-.23.06c-.16,0-.28-.05-.37-.14s-.13-.2-.13-.33c0-.15.06-.28.19-.38Zm1.64.97l4.82-4.04c.23-.2.47-.2.7,0l4.82,4.04v4.64c0,.41-.12.73-.35.96s-.55.34-.96.34h-7.71c-.41,0-.74-.11-.97-.34s-.35-.54-.35-.96v-4.64Zm6.67,1.12c0-.14-.04-.25-.12-.33s-.19-.12-.33-.12h-2.13c-.13,0-.24.04-.33.12s-.13.19-.13.33v3.87h3.02v-3.87Zm2.19-5.81c0-.13.04-.23.12-.31s.18-.11.3-.11h.63c.13,0,.23.04.31.11s.11.18.11.31v2.71l-1.47-1.24v-1.46Z"/>
</svg>