<?xml version="1.0" encoding="utf-8"?>
<!-- Generator: Adobe Illustrator 28.0.0, SVG Export Plug-In . SVG Version: 6.00 Build 0)  -->
<svg version="1.1" id="Ebene_1" xmlns="http://www.w3.org/2000/svg" xmlns:xlink="http://www.w3.org/1999/xlink" x="0px" y="0px"
	 viewBox="0 0 111 53.5" style="enable-background:new 0 0 111 53.5;" xml:space="preserve">
<style type="text/css">
	.st0{fill:#87898F;}
</style>
<g>
	<path class="st0" d="M1.2,51.8c-0.8-0.7-1.2-1.7-1.2-3c0-2,0.5-4.1,1.5-6.2c1-2.1,2.4-4,4.3-5.8c1.9-1.8,4.1-3.2,6.8-4.3
		c2.6-1.1,5.6-1.6,8.9-1.6c2.7,0,5.2,0.4,7.3,1.1c2.1,0.7,4,1.6,5.6,2.7c-1.6,1.2-3,2.7-4.2,4.3s-2.1,3.3-2.8,5
		c-0.7,1.7-1,3.4-1.1,4.9c0,1.6,0.3,2.9,1.1,4H5.2C3.4,52.8,2,52.5,1.2,51.8z M16.5,24.9c-1.6-1-2.8-2.3-3.7-4s-1.4-3.6-1.4-5.7
		c0-2.1,0.4-4,1.4-5.6c1-1.7,2.2-3,3.8-3.9s3.2-1.5,5-1.5c1.8,0,3.5,0.5,5.1,1.4c1.6,0.9,2.8,2.2,3.7,3.9c0.9,1.7,1.4,3.5,1.4,5.6
		s-0.5,4-1.4,5.7c-0.9,1.7-2.2,3.1-3.7,4.1c-1.5,1-3.2,1.5-5.1,1.5C19.7,26.4,18,25.9,16.5,24.9z M32,51.9c-0.9-0.7-1.4-1.6-1.4-2.9
		c0-1.9,0.6-3.9,1.7-5.9c1.1-2.1,2.8-4,4.9-5.9c2.1-1.8,4.7-3.3,7.8-4.5S51.5,31,55.3,31c3.8,0,7.2,0.6,10.3,1.7s5.6,2.6,7.8,4.5
		c2.1,1.8,3.8,3.8,4.9,5.9c1.1,2.1,1.7,4.1,1.7,5.9c0,1.3-0.5,2.3-1.4,2.9c-0.9,0.7-2.6,1-4.9,1H36.9C34.6,52.8,33,52.5,32,51.9z
		 M49.5,24c-1.8-1.1-3.2-2.7-4.3-4.6c-1.1-1.9-1.6-4.1-1.6-6.5c0-2.4,0.5-4.5,1.6-6.4c1.1-1.9,2.5-3.4,4.3-4.5s3.7-1.7,5.8-1.7
		s4,0.5,5.8,1.6c1.8,1.1,3.2,2.6,4.3,4.5s1.6,4.1,1.6,6.5c0,2.4-0.5,4.6-1.6,6.6c-1.1,2-2.5,3.5-4.3,4.6s-3.7,1.7-5.8,1.7
		S51.3,25.1,49.5,24z M83.1,52.8c0.8-1.1,1.1-2.5,1.1-4c0-1.6-0.4-3.2-1.1-4.9c-0.7-1.7-1.6-3.4-2.8-5s-2.6-3-4.2-4.3
		c1.6-1.1,3.5-2,5.6-2.7c2.1-0.7,4.5-1.1,7.3-1.1c3.3,0,6.3,0.5,8.9,1.6s4.9,2.5,6.8,4.3c1.9,1.8,3.3,3.7,4.3,5.8
		c1,2.1,1.5,4.2,1.5,6.2c0,1.3-0.4,2.3-1.2,3c-0.8,0.7-2.1,1.1-4,1.1H83.1z M84,24.9c-1.5-1-2.8-2.3-3.7-4.1
		c-0.9-1.7-1.4-3.6-1.4-5.7s0.5-4,1.4-5.6c0.9-1.7,2.2-2.9,3.7-3.9c1.6-0.9,3.2-1.4,5.1-1.4c1.8,0,3.5,0.5,5,1.5s2.8,2.3,3.8,3.9
		c0.9,1.7,1.4,3.5,1.4,5.6c0,2.1-0.5,4-1.4,5.7s-2.2,3-3.7,4s-3.2,1.5-5.1,1.5C87.2,26.4,85.5,25.9,84,24.9z"/>
</g>
</svg>
