<?xml version="1.0" encoding="UTF-8"?>
<svg id="Ebene_1" data-name="Ebene 1" xmlns="http://www.w3.org/2000/svg" viewBox="0 0 25 16">
  <defs>
    <style>
      .cls-1 {
        fill: #87898f;
        stroke-width: 0px;
      }
    </style>
  </defs>
  <path class="cls-1" d="m1.31,13.78c-.16-.14-.24-.34-.24-.61,0-.41.1-.82.3-1.24s.49-.8.86-1.16.82-.64,1.35-.86,1.12-.33,1.78-.33c.55,0,1.03.07,1.46.21s.8.32,1.13.54c-.32.25-.59.53-.83.85s-.43.66-.57,1-.21.67-.22.98.06.58.22.8H2.11c-.37,0-.63-.07-.79-.21Zm3.05-5.38c-.31-.2-.56-.47-.75-.81s-.28-.72-.28-1.14c0-.42.09-.79.28-1.12s.44-.59.75-.79.64-.29,1-.29.7.09,1.01.28.56.45.75.78.28.71.28,1.13-.09.8-.28,1.15-.44.61-.74.81-.65.3-1.01.3-.7-.1-1.01-.3Zm3.11,5.39c-.19-.13-.28-.33-.28-.58,0-.38.11-.77.34-1.19s.55-.81.98-1.17.95-.66,1.56-.89,1.29-.34,2.05-.34,1.45.11,2.05.34,1.12.53,1.55.89.76.76.98,1.17.34.81.34,1.19c0,.26-.09.45-.28.58s-.51.2-.98.2h-7.36c-.46,0-.78-.07-.97-.2Zm3.49-5.57c-.36-.23-.64-.54-.86-.93s-.33-.83-.33-1.31.11-.91.33-1.29.5-.69.86-.91.74-.33,1.16-.33.8.11,1.16.33.64.52.86.9.32.81.32,1.29-.11.93-.32,1.32-.5.7-.86.93-.74.34-1.16.34-.8-.11-1.16-.34Zm6.72,5.77c.15-.22.22-.49.22-.8s-.08-.64-.22-.98-.32-.68-.56-1-.52-.61-.84-.85c.33-.22.71-.4,1.13-.54s.91-.21,1.46-.21c.66,0,1.26.11,1.79.33s.98.5,1.36.86.66.74.86,1.16.29.83.29,1.24c0,.26-.08.46-.24.61s-.42.21-.79.21h-4.45Zm.17-5.59c-.31-.2-.56-.47-.74-.81s-.28-.72-.28-1.15.09-.8.28-1.13.44-.59.75-.78.65-.28,1.01-.28.7.1,1.01.29.56.46.75.79.28.71.28,1.12-.09.8-.28,1.14-.44.61-.75.81-.65.3-1.01.3-.71-.1-1.01-.3Z"/>
</svg>