<?xml version="1.0" encoding="utf-8"?>
<!-- Generator: Adobe Illustrator 27.9.0, SVG Export Plug-In . SVG Version: 6.00 Build 0)  -->
<svg version="1.1" id="Ebene_1" xmlns="http://www.w3.org/2000/svg" xmlns:xlink="http://www.w3.org/1999/xlink" x="0px" y="0px"
	 viewBox="0 0 25 16" style="enable-background:new 0 0 25 16;" xml:space="preserve">
<style type="text/css">
	.st0{fill:#87898F;}
</style>
<g>
	<path class="st0" d="M6.6,5.6c0.1-0.1,0.3-0.2,0.5-0.2c0.2,0,0.3,0.1,0.5,0.2s0.2,0.3,0.2,0.5v2.6l-0.1,3.3l1.2-1.3l7.1-7.1
		c0.1-0.1,0.3-0.2,0.5-0.2c0.1,0,0.2,0,0.3,0.1c0.1,0.1,0.2,0.1,0.2,0.2C17,3.9,17,4,17,4.1c0,0.2-0.1,0.3-0.2,0.5l-7.1,7.1
		l-1.3,1.2l3.5-0.1h2.5c0.2,0,0.3,0.1,0.4,0.2s0.2,0.3,0.2,0.4c0,0.2-0.1,0.3-0.2,0.5S14.5,14,14.3,14H7.1c-0.2,0-0.4-0.1-0.5-0.2
		s-0.2-0.3-0.2-0.5l0-7.2C6.4,5.9,6.5,5.8,6.6,5.6z"/>
</g>
</svg>
