<?xml version="1.0" encoding="utf-8"?>
<!-- Generator: Adobe Illustrator 28.0.0, SVG Export Plug-In . SVG Version: 6.00 Build 0)  -->
<svg version="1.1" id="Ebene_1" xmlns="http://www.w3.org/2000/svg" xmlns:xlink="http://www.w3.org/1999/xlink" x="0px" y="0px"
	 viewBox="0 0 13.4 13.4" style="enable-background:new 0 0 13.4 13.4;" xml:space="preserve">
<style type="text/css">
	.st0{fill:#181818;}
</style>
<g>
	<path class="st0" d="M6.1,9.5L1.6,4.9C1.5,4.8,1.5,4.8,1.5,4.7s0-0.1,0-0.2c0-0.1,0-0.2,0.1-0.3S1.6,4.1,1.7,4S1.9,4,2,4
		C2.1,4,2.2,4,2.3,4.1l4.5,4.6H6.2l4.5-4.6C10.8,4,10.9,4,11.1,4c0.1,0,0.2,0,0.3,0.1s0.1,0.1,0.2,0.2s0.1,0.2,0.1,0.3
		c0,0.1-0.1,0.3-0.2,0.4L6.9,9.5C6.9,9.6,6.8,9.6,6.7,9.7c-0.1,0-0.1,0-0.2,0C6.4,9.7,6.2,9.7,6.1,9.5z"/>
</g>
</svg>
