<?xml version="1.0" encoding="utf-8"?>
<!-- Generator: Adobe Illustrator 28.0.0, SVG Export Plug-In . SVG Version: 6.00 Build 0)  -->
<svg version="1.1" id="Ebene_1" xmlns="http://www.w3.org/2000/svg" xmlns:xlink="http://www.w3.org/1999/xlink" x="0px" y="0px"
	 viewBox="0 0 12.8 12.8" style="enable-background:new 0 0 12.8 12.8;" xml:space="preserve">
<style type="text/css">
	.st0{fill:#181818;}
</style>
<g>
	<path class="st0" d="M4,12c-0.7-0.3-1.4-0.8-2-1.3s-1-1.2-1.3-2S0.2,7.2,0.2,6.4S0.4,4.8,0.7,4S1.5,2.6,2,2s1.2-1,2-1.3
		s1.5-0.5,2.4-0.5S8,0.4,8.8,0.7c0.7,0.3,1.4,0.8,2,1.3s1,1.2,1.3,2s0.5,1.5,0.5,2.4S12.4,8,12,8.8s-0.8,1.4-1.3,2s-1.2,1-2,1.3
		s-1.5,0.5-2.4,0.5S4.8,12.4,4,12z M6,9.3c0.1,0,0.2-0.1,0.2-0.2L9,4.6c0-0.1,0.1-0.1,0.1-0.2s0-0.1,0-0.2C9.2,4,9.1,3.9,9,3.8
		c-0.1,0-0.2-0.1-0.3-0.1C8.5,3.7,8.4,3.8,8.3,4L5.7,8.1L4.5,6.5C4.4,6.4,4.3,6.4,4.2,6.3c0,0-0.1,0-0.2,0s-0.3,0-0.3,0.1
		C3.6,6.5,3.5,6.6,3.5,6.8c0,0.1,0,0.1,0,0.2s0.1,0.1,0.1,0.2L5.2,9c0.1,0.1,0.2,0.2,0.2,0.2c0.1,0,0.2,0.1,0.3,0.1S5.9,9.3,6,9.3z"
		/>
</g>
</svg>
