<?xml version="1.0" encoding="utf-8"?>
<!-- Generator: Adobe Illustrator 27.9.0, SVG Export Plug-In . SVG Version: 6.00 Build 0)  -->
<svg version="1.1" id="Ebene_1" xmlns="http://www.w3.org/2000/svg" xmlns:xlink="http://www.w3.org/1999/xlink" x="0px" y="0px"
	 viewBox="0 0 25 16" style="enable-background:new 0 0 25 16;" xml:space="preserve">
<style type="text/css">
	.st0{fill:#87898F;}
</style>
<g>
	<path class="st0" d="M16.7,11.9c-0.1,0.1-0.3,0.2-0.5,0.2c-0.2,0-0.3-0.1-0.5-0.2s-0.2-0.3-0.2-0.5V8.8l0.1-3.3l-1.2,1.3l-7.1,7.1
		C7.3,14,7.2,14.1,7,14.1c-0.1,0-0.2,0-0.3-0.1s-0.2-0.1-0.2-0.2c-0.1-0.1-0.1-0.2-0.1-0.3c0-0.2,0.1-0.3,0.2-0.5l7.1-7.1L15,4.7
		l-3.5,0.1H9c-0.2,0-0.3-0.1-0.4-0.2S8.4,4.3,8.4,4.2c0-0.2,0.1-0.3,0.2-0.5S8.8,3.5,9,3.5h7.2c0.2,0,0.4,0.1,0.5,0.2
		c0.1,0.1,0.2,0.3,0.2,0.5l0,7.2C16.9,11.6,16.9,11.8,16.7,11.9z"/>
</g>
</svg>
