<?xml version="1.0" encoding="utf-8"?>
<!-- Generator: Adobe Illustrator 27.9.0, SVG Export Plug-In . SVG Version: 6.00 Build 0)  -->
<svg version="1.1" id="Ebene_1" xmlns="http://www.w3.org/2000/svg" xmlns:xlink="http://www.w3.org/1999/xlink" x="0px" y="0px"
	 viewBox="0 0 17 10.6" style="enable-background:new 0 0 17 10.6;" xml:space="preserve">
<style type="text/css">
	.st0{fill:#87898F;}
</style>
<g>
	<path class="st0" d="M0.1,5c0-0.1,0.1-0.2,0.2-0.3l4.6-4.4c0.2-0.2,0.3-0.2,0.6-0.2c0.2,0,0.4,0.1,0.6,0.2c0.1,0.1,0.2,0.3,0.2,0.5
		c0,0.1,0,0.2-0.1,0.3c0,0.1-0.1,0.2-0.2,0.2l-2,2L2.4,4.6l2-0.1h8.2l2,0.1L13,3.2l-2-2c-0.1-0.1-0.1-0.1-0.2-0.2
		c0-0.1-0.1-0.2-0.1-0.3c0-0.2,0.1-0.4,0.2-0.5C11,0.1,11.2,0,11.5,0c0.2,0,0.4,0.1,0.6,0.2l4.6,4.5c0.1,0.1,0.1,0.2,0.2,0.3
		S17,5.2,17,5.3s0,0.2-0.1,0.3c0,0.1-0.1,0.2-0.2,0.3l-4.6,4.5c-0.2,0.2-0.3,0.2-0.6,0.2c-0.2,0-0.4-0.1-0.6-0.2
		c-0.1-0.1-0.2-0.3-0.2-0.5c0-0.1,0-0.2,0.1-0.3c0-0.1,0.1-0.2,0.2-0.2l2-1.9l1.6-1.4l-2,0.1H4.4l-2-0.1L4,7.4l2,1.9
		c0.1,0.1,0.1,0.1,0.2,0.2c0,0.1,0.1,0.2,0.1,0.3c0,0.2-0.1,0.4-0.2,0.5c-0.1,0.1-0.3,0.2-0.6,0.2c-0.2,0-0.4-0.1-0.6-0.2L0.3,5.9
		C0.2,5.8,0.2,5.7,0.1,5.6C0.1,5.5,0,5.4,0,5.3C0.1,5.2,0.1,5.1,0.1,5z"/>
</g>
</svg>
