<?xml version="1.0" encoding="utf-8"?>
<!-- Generator: Adobe Illustrator 27.9.0, SVG Export Plug-In . SVG Version: 6.00 Build 0)  -->
<svg version="1.1" id="Ebene_1" xmlns="http://www.w3.org/2000/svg" xmlns:xlink="http://www.w3.org/1999/xlink" x="0px" y="0px"
	 viewBox="0 0 10.6 10.6" style="enable-background:new 0 0 10.6 10.6;" xml:space="preserve">
<style type="text/css">
	.st0{fill:#87898F;}
</style>
<g>
	<path class="st0" d="M10.4,8.5C10.2,8.6,10,8.7,9.8,8.7c-0.2,0-0.4-0.1-0.5-0.2S9.1,8.1,9.1,7.9V5.3l0.1-2.9L8.1,3.7l-6.7,6.7
		c-0.2,0.2-0.3,0.2-0.6,0.2c-0.1,0-0.3,0-0.4-0.1c-0.1-0.1-0.2-0.2-0.3-0.3C0,10.1,0,9.9,0,9.8c0-0.2,0.1-0.4,0.3-0.6l6.7-6.7
		l1.3-1.1l-3,0.1H2.7c-0.2,0-0.4-0.1-0.5-0.2C2,1.2,1.9,1,1.9,0.8S2,0.4,2.1,0.2S2.5,0,2.7,0h7.1c0.3,0,0.5,0.1,0.6,0.2
		c0.1,0.2,0.2,0.4,0.2,0.6l0,7.1C10.6,8.1,10.5,8.3,10.4,8.5z"/>
</g>
</svg>
