<?xml version="1.0" encoding="utf-8"?>
<!-- Generator: Adobe Illustrator 28.0.0, SVG Export Plug-In . SVG Version: 6.00 Build 0)  -->
<svg version="1.1" id="Ebene_1" xmlns="http://www.w3.org/2000/svg" xmlns:xlink="http://www.w3.org/1999/xlink" x="0px" y="0px"
	 viewBox="0 0 7.1 16" style="enable-background:new 0 0 7.1 16;" xml:space="preserve">
<style type="text/css">
	.st0{fill:#DCE1EB;}
</style>
<g>
	<path class="st0" d="M0.2,7.2C0.2,7.1,0.3,7,0.3,7l5.6-5.5C6,1.4,6.2,1.3,6.4,1.3c0.1,0,0.2,0,0.3,0.1s0.2,0.1,0.2,0.2
		C7,1.7,7.1,1.8,7.1,1.9c0,0.2-0.1,0.3-0.2,0.5L1.7,7.5l5.2,5.1c0.1,0.1,0.2,0.3,0.2,0.5c0,0.1,0,0.2-0.1,0.3s-0.1,0.2-0.2,0.2
		c-0.1,0.1-0.2,0.1-0.3,0.1c-0.2,0-0.3-0.1-0.5-0.2L0.3,7.9c0-0.1-0.1-0.2-0.1-0.2s0-0.2,0-0.3S0.1,7.2,0.2,7.2z"/>
</g>
</svg>
