<?xml version="1.0" encoding="utf-8"?>
<!-- Generator: Adobe Illustrator 28.0.0, SVG Export Plug-In . SVG Version: 6.00 Build 0)  -->
<svg version="1.1" id="Ebene_1" xmlns="http://www.w3.org/2000/svg" xmlns:xlink="http://www.w3.org/1999/xlink" x="0px" y="0px"
	 viewBox="0 0 25 16" style="enable-background:new 0 0 25 16;" xml:space="preserve">
<g>
	<path d="M6.2,4.2c0-0.2,0-0.4,0.1-0.5c0.1-0.2,0.2-0.3,0.4-0.4l3-1.7c0.1,0,0.1-0.1,0.2-0.1c0.1,0,0.1-0.1,0.2-0.1v10.4l-2.6,1.4
		c-0.2,0.1-0.4,0.2-0.5,0.2c-0.2,0-0.4-0.1-0.5-0.2s-0.2-0.3-0.2-0.5V4.2z M10.9,1.3c0.1,0,0.1,0,0.2,0.1s0.1,0.1,0.2,0.1l3.1,1.9
		v10.3c0,0-0.1,0-0.1-0.1s-0.1,0-0.1-0.1l-3.2-1.8V1.3z M15.3,3.2L18,1.7c0.2-0.1,0.4-0.2,0.5-0.2c0.2,0,0.4,0.1,0.5,0.2
		c0.1,0.1,0.2,0.3,0.2,0.5v8.5c0,0.2,0,0.4-0.1,0.5c-0.1,0.2-0.2,0.3-0.4,0.4l-3.3,1.9c0,0-0.1,0-0.1,0c0,0-0.1,0-0.1,0V3.2z"/>
</g>
</svg>
