<?xml version="1.0" encoding="UTF-8"?>
<svg id="Ebene_1" data-name="Ebene 1" xmlns="http://www.w3.org/2000/svg" viewBox="0 0 25 16">
  <defs>
    <style>
      .cls-1 {
        fill: #000000;
        stroke-width: 0px;
      }
    </style>
  </defs>
  <path class="cls-1" d="m7.56,13.15c-.18-.14-.27-.33-.27-.57,0-.38.11-.77.34-1.19s.55-.81.98-1.17.95-.66,1.56-.89,1.29-.34,2.05-.34,1.45.11,2.05.34,1.12.53,1.55.89.76.76.98,1.17.34.81.34,1.19c0,.24-.09.43-.27.57s-.42.21-.74.21h-7.86c-.31,0-.56-.07-.74-.21Zm3.51-5.56c-.36-.23-.64-.54-.86-.93s-.33-.83-.33-1.31.11-.91.33-1.29.5-.69.86-.91.74-.33,1.16-.33.8.11,1.16.33.64.52.86.9.33.81.33,1.29-.11.93-.33,1.32-.5.7-.86.93-.74.34-1.16.34-.8-.11-1.16-.34Z"/>
</svg>