<?xml version="1.0" encoding="utf-8"?>
<!-- Generator: Adobe Illustrator 27.9.0, SVG Export Plug-In . SVG Version: 6.00 Build 0)  -->
<svg version="1.1" id="Ebene_1" xmlns="http://www.w3.org/2000/svg" xmlns:xlink="http://www.w3.org/1999/xlink" x="0px" y="0px"
	 viewBox="0 0 10.6 10.6" style="enable-background:new 0 0 10.6 10.6;" xml:space="preserve">
<style type="text/css">
	.st0{fill:#87898F;}
</style>
<g>
	<path class="st0" d="M0.2,2.1C0.4,2,0.6,1.9,0.8,1.9C1,1.9,1.2,2,1.3,2.1c0.1,0.2,0.2,0.3,0.2,0.6v2.6L1.4,8.2l1.1-1.3l6.7-6.7
		C9.4,0.1,9.6,0,9.8,0c0.1,0,0.3,0,0.4,0.1s0.2,0.2,0.3,0.3s0.1,0.3,0.1,0.4c0,0.2-0.1,0.4-0.3,0.6L3.7,8.1L2.4,9.2l3-0.1h2.5
		c0.2,0,0.4,0.1,0.5,0.2c0.2,0.1,0.2,0.3,0.2,0.5c0,0.2-0.1,0.4-0.2,0.5c-0.2,0.2-0.3,0.2-0.6,0.2H0.8c-0.3,0-0.5-0.1-0.6-0.2
		S0,10,0,9.8l0-7.1C0,2.5,0.1,2.3,0.2,2.1z"/>
</g>
</svg>
